<svg
  xmlns="http://www.w3.org/2000/svg"
  width="16"
  height="16"
  viewBox="0 0 16 16"
  fill="none"
>
  <g clip-path="url(#clip0_873_9618)">
    <path
      d="M7.58953 1.65568C7.74122 1.29031 8.25878 1.29031 8.41047 1.65568L10.0645 5.63966C10.1294 5.79603 10.2775 5.90193 10.4465 5.91278L14.8579 6.19587C15.2626 6.22184 15.424 6.73189 15.1078 6.98589L11.7367 9.69388C11.6 9.80368 11.5406 9.98358 11.5851 10.1532L12.6655 14.271C12.7669 14.6575 12.3466 14.971 12.005 14.7638L8.23055 12.4736C8.08887 12.3877 7.91113 12.3877 7.76945 12.4736L3.99496 14.7638C3.6534 14.971 3.23313 14.6575 3.33452 14.271L4.41486 10.1532C4.45935 9.98358 4.39999 9.80368 4.2633 9.69388L0.892234 6.98589C0.57604 6.73189 0.737364 6.22184 1.14211 6.19587L5.55349 5.91278C5.72245 5.90193 5.87058 5.79603 5.9355 5.63966L7.58953 1.65568Z"
      fill="#404FDC"
      stroke="#404FDC"
      stroke-width="1.33333"
      stroke-linejoin="round"
    />
  </g>
  <defs>
    <clipPath id="clip0_873_9618">
      <rect width="16" height="16" fill="white" />
    </clipPath>
  </defs>
</svg>
