<svg width="228" height="263" viewBox="0 0 228 263" fill="none" xmlns="http://www.w3.org/2000/svg">
<g opacity="0.2">
<path d="M229.304 109.191C229.304 185.622 131.035 251.135 131.035 251.135C131.035 251.135 32.7656 185.622 32.7656 109.191C32.7656 83.1283 43.1189 58.1332 61.548 39.7042C79.977 21.2752 104.972 10.9219 131.035 10.9219C157.097 10.9219 182.092 21.2752 200.521 39.7042C218.95 58.1332 229.304 83.1283 229.304 109.191Z" stroke="#F4F8FB" stroke-width="15.3201" stroke-linecap="round" stroke-linejoin="round"/>
<ellipse cx="131.027" cy="109.183" rx="43.6751" ry="43.6751" stroke="#F4F8FB" stroke-width="15.3201"/>
<path fill-rule="evenodd" clip-rule="evenodd" d="M32.7656 109.191L54.6032 180.163L131.035 251.135L202.007 196.541L234.763 98.2721L196.547 27.3L120.116 10.9219L54.6032 43.6782L32.7656 109.191ZM87.3531 103.724L98.2719 141.94L147.406 152.859L174.703 114.643L153.21 68.0916L100.594 75.8293L87.3531 103.724Z" fill="#F4F8FB"/>
</g>
</svg>
