<svg width="24" height="25" viewBox="0 0 24 25" fill="none" xmlns="http://www.w3.org/2000/svg">
<path d="M2 7.97059C2 5.86271 2 4.80988 2.586 4.15494C3.172 3.5 4.114 3.5 6 3.5H18C19.886 3.5 20.828 3.5 21.414 4.15494C22 4.80988 22 5.86271 22 7.97059C22 8.497 22 8.76076 21.854 8.92506C21.707 9.08824 21.47 9.08824 21 9.08824H3C2.529 9.08824 2.293 9.08824 2.146 8.92506C2 8.76076 2 8.49588 2 7.97059ZM2 18.0294C2 20.1373 2 21.1901 2.586 21.8451C3.172 22.5 4.114 22.5 6 22.5H18C19.886 22.5 20.828 22.5 21.414 21.8451C22 21.1901 22 20.1373 22 18.0294V12.4412C22 11.9148 22 11.651 21.854 11.4867C21.707 11.3235 21.47 11.3235 21 11.3235H3C2.529 11.3235 2.293 11.3235 2.146 11.4867C2 11.651 2 11.9159 2 12.4412V18.0294Z" fill="#5175FF"/>
<path d="M7 2.5V5.5M17 2.5V5.5" stroke="#5175FF" stroke-width="2" stroke-linecap="round"/>
</svg>
