<svg width="18" height="18" viewBox="0 0 18 18" fill="none" xmlns="http://www.w3.org/2000/svg">
<path d="M1.5 5.60294C1.5 4.02203 1.5 3.23241 1.9395 2.74121C2.379 2.25 3.0855 2.25 4.5 2.25H13.5C14.9145 2.25 15.621 2.25 16.0605 2.74121C16.5 3.23241 16.5 4.02203 16.5 5.60294C16.5 5.99775 16.5 6.19557 16.3905 6.31879C16.2802 6.44118 16.1025 6.44118 15.75 6.44118H2.25C1.89675 6.44118 1.71975 6.44118 1.6095 6.31879C1.5 6.19557 1.5 5.99691 1.5 5.60294ZM1.5 13.1471C1.5 14.728 1.5 15.5176 1.9395 16.0088C2.379 16.5 3.0855 16.5 4.5 16.5H13.5C14.9145 16.5 15.621 16.5 16.0605 16.0088C16.5 15.5176 16.5 14.728 16.5 13.1471V8.95588C16.5 8.56107 16.5 8.36325 16.3905 8.24003C16.2802 8.11765 16.1025 8.11765 15.75 8.11765H2.25C1.89675 8.11765 1.71975 8.11765 1.6095 8.24003C1.5 8.36325 1.5 8.56191 1.5 8.95588V13.1471Z" fill="#FF6467"/>
<path d="M5.25 1.5V3.75M12.75 1.5V3.75" stroke="#FF6467" stroke-width="1.5" stroke-linecap="round"/>
</svg>
