<svg width="16" height="17" viewBox="0 0 16 17" fill="none" xmlns="http://www.w3.org/2000/svg">
<g clip-path="url(#clip0_1354_21271)">
<path d="M8.33594 3.66797L12.8359 8.16797M8.33594 3.66797L1.90021 10.1037C1.69621 10.3077 1.56388 10.5724 1.52308 10.8579L1.08735 13.9081C0.961645 14.788 1.71589 15.5423 2.59585 15.4166L5.64596 14.9808C5.93155 14.94 6.19621 14.8077 6.40021 14.6037L12.8359 8.16797M8.33594 3.66797L10.3931 1.61078C10.9138 1.09008 11.758 1.09008 12.2787 1.61078L14.8931 4.22516C15.4138 4.74586 15.4138 5.59008 14.8931 6.11078L12.8359 8.16797M9.83594 15.668H14.3359" stroke="#C0C0C0" stroke-width="1.33333" stroke-linecap="round"/>
</g>
<defs>
<clipPath id="clip0_1354_21271">
<rect width="16" height="16" fill="white" transform="translate(0 0.5)"/>
</clipPath>
</defs>
</svg>
