<svg width="340" height="401" viewBox="0 0 340 401" fill="none" xmlns="http://www.w3.org/2000/svg">
<rect width="340.011" height="401" rx="31.2567" fill="white"/>
<path d="M22.8595 35.6875L17.193 40.9762C16.7569 41.3833 16.7719 42.0792 17.2252 42.4671L23.1414 47.5287" stroke="#17171B" stroke-width="1.52471" stroke-linecap="round"/>
<g clip-path="url(#clip0_2011_15673)">
<circle cx="270.086" cy="40.0859" r="6.375" stroke="#17171B" stroke-width="1.5"/>
<path d="M278.581 48.5846L275.039 45.043" stroke="#17171B" stroke-width="2" stroke-linecap="round" stroke-linejoin="round"/>
</g>
<path d="M126.012 46V36.1016H127.516V40.8184H127.639L131.781 36.1016H133.668L129.676 40.5586L133.682 46H131.863L128.678 41.584L127.516 42.9238V46H126.012ZM140.92 36.1016H142.423V42.6094C142.423 44.6875 140.865 46.1641 138.5 46.1641C136.107 46.1641 134.562 44.6875 134.562 42.6094V36.1016H136.066V42.4863C136.066 43.8262 136.996 44.7969 138.5 44.7969C139.99 44.7969 140.92 43.8262 140.92 42.4863V36.1016ZM145.601 36.1016V46H144.097V36.1016H145.601ZM146.768 37.4004V36.1016H154.438V37.4004H151.362V46H149.858V37.4004H146.768ZM168.654 34.9121V47.1621H167.396V34.9121H168.654ZM166.125 35.1719V46.5469H164.895V40.5996H162.379V39.5195H164.895V35.1719H166.125ZM163.213 36.375V37.4414H159.836V43.1973C161.442 43.1836 162.522 43.1152 163.787 42.8418L163.896 43.9355C162.488 44.2227 161.285 44.2773 159.371 44.2773H158.564V36.375H163.213ZM181.088 44.5508V45.6309H169.877V44.5508H174.812V41.7207H171.162V35.8965H179.748V41.7207H176.097V44.5508H181.088ZM172.42 36.9355V40.6953H178.476V36.9355H172.42ZM192.154 34.9121V47.1621H190.896V34.9121H192.154ZM189.624 35.1719V46.5469H188.394V40.5996H185.878V39.5195H188.394V35.1719H189.624ZM186.712 36.375V37.4414H183.335V43.1973C184.942 43.1836 186.022 43.1152 187.286 42.8418L187.396 43.9355C185.987 44.2227 184.784 44.2773 182.87 44.2773H182.064V36.375H186.712ZM203.52 34.9121V47.1895H202.221V34.9121H203.52ZM196.971 35.8281C198.79 35.8281 200.13 37.4961 200.13 40.1211C200.13 42.7598 198.79 44.4277 196.971 44.4277C195.126 44.4277 193.8 42.7598 193.8 40.1211C193.8 37.4961 195.126 35.8281 196.971 35.8281ZM196.971 36.9902C195.837 36.9902 195.057 38.1934 195.057 40.1211C195.057 42.0625 195.837 43.2656 196.971 43.2656C198.093 43.2656 198.872 42.0625 198.872 40.1211C198.872 38.1934 198.093 36.9902 196.971 36.9902Z" fill="#17171B"/>
<path d="M210.422 43.2607V42.4785L213.234 38.1367H214.43V42.4434H215.3V43.2607H214.43V44.5H213.516V43.2607H210.422ZM211.441 42.4434H213.516V39.2881H213.445L211.441 42.3906V42.4434Z" fill="#919191"/>
<g filter="url(#filter0_d_2011_15673)">
<rect x="275" y="106" width="53" height="31" rx="4" fill="#5175FF" shape-rendering="crispEdges"/>
<path d="M287.685 116.097C288.777 116.103 289.662 116.74 290.178 117.839H293.314V115.172H294.359V127.112H293.314V122.489H290.258C289.756 123.695 288.838 124.392 287.685 124.392C285.93 124.392 284.697 122.784 284.697 120.251C284.697 117.718 285.93 116.11 287.685 116.097ZM287.685 117.035C286.506 117.048 285.702 118.308 285.702 120.251C285.702 122.194 286.506 123.454 287.685 123.454C288.851 123.454 289.669 122.194 289.669 120.251C289.669 118.308 288.851 117.048 287.685 117.035ZM290.486 118.723C290.593 119.186 290.66 119.695 290.66 120.251C290.66 120.74 290.607 121.203 290.526 121.618H293.314V118.723H290.486ZM305.862 115.172V127.112H304.817V120.64H302.498V119.755H304.817V115.172H305.862ZM301.775 116.284V120.452H297.5V123.347C299.55 123.347 301.038 123.286 302.78 122.958L302.86 123.842C301.065 124.164 299.524 124.231 297.366 124.244H296.455V119.581H300.756V117.155H296.415V116.284H301.775ZM318.411 121.484V122.342H313.56V124.673H312.514V122.342H307.502V121.484H318.411ZM317.191 125.946V126.831H308.896V123.574H309.941V125.946H317.191ZM310.008 115.561V117.088H315.905V115.561H316.95V120.318H308.963V115.561H310.008ZM310.008 119.46H315.905V117.893H310.008V119.46Z" fill="white"/>
</g>
<g filter="url(#filter1_d_2011_15673)">
<rect x="263" y="248" width="65" height="31" rx="4" fill="#5175FF" shape-rendering="crispEdges"/>
<path d="M275.685 258.097C276.777 258.103 277.662 258.74 278.178 259.839H281.314V257.172H282.359V269.112H281.314V264.489H278.258C277.756 265.695 276.838 266.392 275.685 266.392C273.93 266.392 272.697 264.784 272.697 262.251C272.697 259.718 273.93 258.11 275.685 258.097ZM275.685 259.035C274.506 259.048 273.702 260.308 273.702 262.251C273.702 264.194 274.506 265.454 275.685 265.454C276.851 265.454 277.669 264.194 277.669 262.251C277.669 260.308 276.851 259.048 275.685 259.035ZM278.486 260.723C278.593 261.186 278.66 261.695 278.66 262.251C278.66 262.74 278.607 263.203 278.526 263.618H281.314V260.723H278.486ZM293.862 257.172V269.112H292.817V262.64H290.498V261.755H292.817V257.172H293.862ZM289.775 258.284V262.452H285.5V265.347C287.55 265.347 289.038 265.286 290.78 264.958L290.86 265.842C289.065 266.164 287.524 266.231 285.366 266.244H284.455V261.581H288.756V259.155H284.415V258.284H289.775ZM306.411 263.484V264.342H301.56V266.673H300.514V264.342H295.502V263.484H306.411ZM305.191 267.946V268.831H296.896V265.574H297.941V267.946H305.191ZM298.008 257.561V259.088H303.905V257.561H304.95V262.318H296.963V257.561H298.008ZM298.008 261.46H303.905V259.893H298.008V261.46ZM308.292 268.08C307.823 268.08 307.421 267.692 307.434 267.209C307.421 266.74 307.823 266.352 308.292 266.352C308.761 266.352 309.15 266.74 309.15 267.209C309.15 267.692 308.761 268.08 308.292 268.08ZM311.433 268.08C310.964 268.08 310.562 267.692 310.576 267.209C310.562 266.74 310.964 266.352 311.433 266.352C311.902 266.352 312.291 266.74 312.291 267.209C312.291 267.692 311.902 268.08 311.433 268.08ZM314.012 265.199C314.025 263.404 314.574 262.854 315.499 262.291C316.048 261.956 316.477 261.42 316.477 260.67C316.477 259.758 315.767 259.182 314.883 259.182C314.119 259.182 313.355 259.638 313.275 260.737H312.055C312.122 259.115 313.355 258.164 314.883 258.164C316.558 258.164 317.657 259.249 317.657 260.723C317.657 261.769 317.161 262.506 316.33 263.015C315.499 263.524 315.191 264.033 315.164 265.199V265.266H314.012V265.199ZM314.628 268.08C314.159 268.08 313.757 267.692 313.77 267.209C313.757 266.74 314.159 266.352 314.628 266.352C315.097 266.352 315.486 266.74 315.486 267.209C315.486 267.692 315.097 268.08 314.628 268.08Z" fill="white"/>
</g>
<path d="M155.876 164.347C157.563 164.355 158.785 165.182 158.785 166.438C158.785 167.621 157.761 168.398 156.289 168.521V170.068H159.497V170.763H152.29V170.068H155.463V168.521C154 168.398 152.976 167.621 152.976 166.438C152.976 165.182 154.197 164.355 155.876 164.347ZM155.876 165.032C154.663 165.023 153.784 165.586 153.784 166.438C153.784 167.326 154.663 167.871 155.876 167.88C157.098 167.871 157.977 167.326 157.977 166.438C157.977 165.586 157.098 165.023 155.876 165.032ZM166.62 164.742V165.428H160.213V164.742H163.016V163.837H163.842V164.742H166.62ZM167.05 168.97V169.655H163.842V171.756H163.016V169.655H159.843V168.97H167.05ZM163.429 165.832C165.064 165.832 166.048 166.298 166.048 167.159C166.048 168.003 165.064 168.469 163.429 168.478C161.786 168.469 160.801 168.003 160.81 167.159C160.801 166.298 161.786 165.832 163.429 165.832ZM163.429 166.456C162.296 166.456 161.671 166.702 161.671 167.159C161.671 167.599 162.296 167.845 163.429 167.845C164.554 167.845 165.178 167.599 165.187 167.159C165.178 166.702 164.554 166.456 163.429 166.456ZM169.641 171V170.297L171.847 168.073C172.542 167.344 172.893 166.939 172.893 166.386C172.893 165.762 172.384 165.357 171.716 165.357C171.013 165.357 170.555 165.806 170.555 166.482H169.641C169.633 165.322 170.52 164.549 171.733 164.549C172.964 164.549 173.807 165.322 173.816 166.359C173.807 167.071 173.473 167.634 172.278 168.812L170.986 170.121V170.174H173.922V171H169.641ZM175.393 171.062C175.05 171.062 174.76 170.78 174.769 170.438C174.76 170.095 175.05 169.813 175.393 169.813C175.727 169.813 176.017 170.095 176.017 170.438C176.017 170.78 175.727 171.062 175.393 171.062ZM175.393 167.59C175.05 167.59 174.76 167.309 174.769 166.966C174.76 166.623 175.05 166.342 175.393 166.342C175.727 166.342 176.017 166.623 176.017 166.966C176.017 167.309 175.727 167.59 175.393 167.59ZM179.176 171.088C177.857 171.088 176.917 170.376 176.882 169.339H177.866C177.901 169.901 178.455 170.253 179.167 170.253C179.932 170.253 180.494 169.831 180.494 169.216C180.494 168.592 179.967 168.135 179.062 168.135H178.517V167.344H179.062C179.782 167.344 180.292 166.939 180.292 166.333C180.292 165.753 179.861 165.357 179.185 165.357C178.543 165.357 177.98 165.709 177.954 166.289H177.022C177.049 165.252 178.007 164.549 179.193 164.549C180.441 164.549 181.232 165.34 181.224 166.28C181.232 167.001 180.784 167.528 180.099 167.695V167.739C180.969 167.862 181.47 168.442 181.47 169.251C181.47 170.314 180.494 171.088 179.176 171.088ZM184.725 164.637V171H183.75V165.604H183.714L182.194 166.597V165.674L183.776 164.637H184.725Z" fill="#C0C0C0"/>
<g filter="url(#filter2_d_2011_15673)">
<rect x="190" y="143" width="138" height="31" rx="4" fill="#5175FF" shape-rendering="crispEdges"/>
<path d="M208.702 152.172V156.889H210.699V157.774H208.702V164.112H207.657V152.172H208.702ZM205.566 153.338V154.209H201.05V160.239C203.208 160.239 204.736 160.139 206.504 159.811L206.638 160.722C204.776 161.057 203.208 161.124 200.943 161.124H200.005V153.338H205.566ZM221.867 157.184V158.028H210.999V157.184H221.867ZM220.567 155.348V156.206H212.446V152.588H220.447V153.432H213.505V155.348H220.567ZM220.46 159.1V161.861H213.384V163.094H220.822V163.951H212.339V161.07H219.428V159.918H212.312V159.1H220.46ZM229.851 155.375C229.838 157.546 231.325 159.744 233.081 160.534L232.438 161.365C231.084 160.702 229.912 159.301 229.342 157.599C228.786 159.402 227.613 160.903 226.22 161.606L225.55 160.722C227.319 159.904 228.793 157.64 228.806 155.375V153.204H229.851V155.375ZM235.439 152.172V164.112H234.381V152.172H235.439ZM246.447 152.172V155.804H248.243V156.688H246.447V160.896H245.388V152.172H246.447ZM243.231 153.097C243.231 156.166 241.033 158.444 237.602 159.516L237.147 158.672C240.001 157.78 241.864 156.078 242.092 153.981H237.643V153.097H243.231ZM246.996 162.946V163.831H238.983V160.012H240.028V162.946H246.996ZM261.627 152.186V160.963H260.569V156.367H258.076C257.842 157.834 256.609 158.832 255.034 158.832C253.252 158.832 251.939 157.613 251.939 155.884C251.939 154.155 253.252 152.949 255.034 152.949C256.642 152.949 257.895 153.975 258.09 155.496H260.569V152.186H261.627ZM261.962 162.946V163.831H253.976V160.065H255.034V162.946H261.962ZM255.034 153.874C253.841 153.887 252.944 154.705 252.944 155.884C252.944 157.063 253.841 157.908 255.034 157.921C256.2 157.908 257.098 157.063 257.098 155.884C257.098 154.705 256.2 153.887 255.034 153.874ZM273.452 152.172V164.085H272.447V152.172H273.452ZM271.04 152.467V163.469H270.048V157.331H268.038V156.474H270.048V152.467H271.04ZM266.765 155.576C266.765 157.64 267.69 159.69 269.338 160.641L268.695 161.419C267.522 160.715 266.692 159.429 266.283 157.908C265.847 159.549 264.983 160.95 263.79 161.7L263.12 160.909C264.782 159.918 265.747 157.747 265.747 155.576V154.45H263.455V153.579H268.95V154.45H266.765V155.576ZM284.988 157.318V158.189H282.375V160.534C283.54 160.487 284.713 160.407 285.819 160.28L285.899 161.07C283.259 161.459 280.378 161.499 278.1 161.499L277.952 160.615C278.991 160.615 280.143 160.608 281.329 160.574V158.189H278.863V153.311H284.934V154.169H279.895V157.318H284.988ZM287.654 152.172V164.112H286.609V152.172H287.654ZM292.94 155.563C292.94 157.452 293.864 159.502 295.446 160.44L294.843 161.258C293.697 160.561 292.873 159.288 292.457 157.841C292.015 159.422 291.131 160.782 289.938 161.513L289.268 160.722C290.916 159.757 291.921 157.64 291.921 155.603V153.298H292.94V155.563ZM299.613 152.172V164.085H298.595V152.172H299.613ZM297.148 152.427V163.482H296.156V157.345H294.132V156.447H296.156V152.427H297.148ZM311.827 161.673V162.558H300.919V161.673H303.626V158.457C302.607 157.928 301.991 157.07 301.991 155.991C301.991 154.142 303.8 152.936 306.346 152.923C308.892 152.936 310.701 154.142 310.701 155.991C310.701 157.05 310.105 157.901 309.12 158.43V161.673H311.827ZM306.346 153.794C304.389 153.78 303.009 154.665 303.009 155.991C303.009 157.318 304.389 158.216 306.346 158.216C308.289 158.216 309.683 157.318 309.683 155.991C309.683 154.665 308.289 153.78 306.346 153.794ZM304.657 161.673H308.061V158.832C307.545 158.973 306.969 159.047 306.346 159.047C305.736 159.047 305.167 158.98 304.657 158.846V161.673ZM314.338 160.199C314.352 158.404 314.901 157.854 315.826 157.291C316.375 156.956 316.804 156.42 316.804 155.67C316.804 154.758 316.094 154.182 315.209 154.182C314.445 154.182 313.681 154.638 313.601 155.737H312.382C312.449 154.115 313.681 153.164 315.209 153.164C316.884 153.164 317.983 154.249 317.983 155.723C317.983 156.769 317.487 157.506 316.656 158.015C315.826 158.524 315.517 159.033 315.491 160.199V160.266H314.338V160.199ZM314.955 163.08C314.486 163.08 314.084 162.692 314.097 162.209C314.084 161.74 314.486 161.352 314.955 161.352C315.424 161.352 315.812 161.74 315.812 162.209C315.812 162.692 315.424 163.08 314.955 163.08Z" fill="white"/>
</g>
<path d="M263.876 306.347C265.563 306.355 266.785 307.182 266.785 308.438C266.785 309.621 265.761 310.398 264.289 310.521V312.068H267.497V312.763H260.29V312.068H263.463V310.521C262 310.398 260.976 309.621 260.976 308.438C260.976 307.182 262.197 306.355 263.876 306.347ZM263.876 307.032C262.663 307.023 261.784 307.586 261.784 308.438C261.784 309.326 262.663 309.871 263.876 309.88C265.098 309.871 265.977 309.326 265.977 308.438C265.977 307.586 265.098 307.023 263.876 307.032ZM274.62 306.742V307.428H268.213V306.742H271.016V305.837H271.842V306.742H274.62ZM275.05 310.97V311.655H271.842V313.756H271.016V311.655H267.843V310.97H275.05ZM271.429 307.832C273.064 307.832 274.048 308.298 274.048 309.159C274.048 310.003 273.064 310.469 271.429 310.478C269.786 310.469 268.801 310.003 268.81 309.159C268.801 308.298 269.786 307.832 271.429 307.832ZM271.429 308.456C270.296 308.456 269.671 308.702 269.671 309.159C269.671 309.599 270.296 309.845 271.429 309.845C272.554 309.845 273.178 309.599 273.187 309.159C273.178 308.702 272.554 308.456 271.429 308.456ZM277.501 311.761V310.979L280.313 306.637H281.509V310.943H282.379V311.761H281.509V313H280.595V311.761H277.501ZM278.52 310.943H280.595V307.788H280.524L278.52 310.891V310.943ZM283.753 313.062C283.411 313.062 283.121 312.78 283.129 312.438C283.121 312.095 283.411 311.813 283.753 311.813C284.087 311.813 284.377 312.095 284.377 312.438C284.377 312.78 284.087 313.062 283.753 313.062ZM283.753 309.59C283.411 309.59 283.121 309.309 283.129 308.966C283.121 308.623 283.411 308.342 283.753 308.342C284.087 308.342 284.377 308.623 284.377 308.966C284.377 309.309 284.087 309.59 283.753 309.59ZM287.694 306.637V313H286.719V307.604H286.684L285.163 308.597V307.674L286.745 306.637H287.694ZM289.306 313L292.145 307.516V307.463H288.867V306.637H293.147V307.498L290.317 313H289.306Z" fill="#C0C0C0"/>
<g filter="url(#filter3_d_2011_15673)">
<rect x="298" y="285" width="30" height="31" rx="4" fill="#5175FF" shape-rendering="crispEdges"/>
<path d="M310.672 295.097C312.427 295.11 313.674 296.718 313.687 299.251C313.674 301.784 312.427 303.392 310.672 303.392C308.903 303.392 307.67 301.784 307.67 299.251C307.67 296.718 308.903 295.11 310.672 295.097ZM310.672 296.035C309.493 296.048 308.662 297.308 308.662 299.251C308.662 301.194 309.493 302.454 310.672 302.454C311.864 302.454 312.669 301.194 312.669 299.251C312.669 297.308 311.864 296.048 310.672 296.035ZM318.632 297.174V298.072H316.702V300.725H318.632V301.61H316.702V306.085H315.657V294.172H316.702V297.174H318.632Z" fill="white"/>
</g>
<rect x="309" y="34.2109" width="18.6778" height="1.52471" fill="#17171B"/>
<rect x="309" y="40.7383" width="18.6778" height="1.52471" fill="#17171B"/>
<rect x="309" y="47.2617" width="18.6778" height="1.52471" fill="#17171B"/>
<path d="M283 369.08H327V325.08H283V369.08Z" fill="black"/>
<rect x="125" y="72" width="90" height="18" rx="8" fill="#EDF1FF"/>
<path d="M133.562 84.5V83.7969L135.769 81.5732C136.463 80.8438 136.814 80.4395 136.814 79.8857C136.814 79.2617 136.305 78.8574 135.637 78.8574C134.934 78.8574 134.477 79.3057 134.477 79.9824H133.562C133.554 78.8223 134.441 78.0488 135.654 78.0488C136.885 78.0488 137.729 78.8223 137.737 79.8594C137.729 80.5713 137.395 81.1338 136.199 82.3115L134.907 83.6211V83.6738H137.843V84.5H133.562ZM140.905 84.5879C139.428 84.5879 138.567 83.4014 138.567 81.3184C138.567 79.2529 139.446 78.0488 140.905 78.0488C142.364 78.0488 143.243 79.2529 143.243 81.3184C143.243 83.4014 142.373 84.5879 140.905 84.5879ZM140.905 83.7529C141.766 83.7529 142.276 82.9092 142.276 81.3184C142.276 79.7363 141.757 78.8662 140.905 78.8662C140.052 78.8662 139.534 79.7363 139.534 81.3184C139.534 82.9092 140.044 83.7529 140.905 83.7529ZM144.02 84.5V83.7969L146.226 81.5732C146.92 80.8438 147.272 80.4395 147.272 79.8857C147.272 79.2617 146.762 78.8574 146.094 78.8574C145.391 78.8574 144.934 79.3057 144.934 79.9824H144.02C144.011 78.8223 144.899 78.0488 146.112 78.0488C147.342 78.0488 148.186 78.8223 148.195 79.8594C148.186 80.5713 147.852 81.1338 146.656 82.3115L145.364 83.6211V83.6738H148.3V84.5H144.02ZM151.309 84.5879C150.105 84.5879 149.2 83.8496 149.156 82.8389H150.096C150.149 83.3838 150.668 83.7793 151.309 83.7793C152.083 83.7793 152.637 83.2168 152.637 82.4609C152.637 81.6875 152.065 81.125 151.265 81.1162C150.756 81.1162 150.369 81.2832 150.149 81.6787H149.235L149.648 78.1367H153.252V78.9629H150.448L150.237 80.7471H150.299C150.562 80.4922 151.011 80.3164 151.494 80.3164C152.689 80.3164 153.577 81.2041 153.577 82.4346C153.577 83.6914 152.637 84.5879 151.309 84.5879ZM160.673 77.3809V83.1992H159.838V80.5186H157.676V79.8506H159.838V79.0244H157.676V78.3564H159.838V77.3809H160.673ZM160.875 84.4033V85.0801H155.54V82.6895H156.384V84.4033H160.875ZM155.4 77.9258V81.3711C156.446 81.3711 157.439 81.3052 158.564 81.0986L158.652 81.7842C157.404 82.0215 156.34 82.0654 155.18 82.0742H154.574V77.9258H155.4ZM163.906 84.5V83.7969L166.112 81.5732C166.806 80.8438 167.158 80.4395 167.158 79.8857C167.158 79.2617 166.648 78.8574 165.98 78.8574C165.277 78.8574 164.82 79.3057 164.82 79.9824H163.906C163.897 78.8223 164.785 78.0488 165.998 78.0488C167.228 78.0488 168.072 78.8223 168.081 79.8594C168.072 80.5713 167.738 81.1338 166.543 82.3115L165.251 83.6211V83.6738H168.186V84.5H163.906ZM175.309 77.3809V81.9951H174.474V81.6172H172.936V81.0898H174.474V77.3809H175.309ZM168.743 80.2812C170.264 80.29 172.197 80.2725 173.894 80.0879L173.938 80.624C173.195 80.7251 172.426 80.7866 171.67 80.8262V82.0127H170.844V80.8613C170.132 80.8789 169.455 80.8833 168.84 80.8789L168.743 80.2812ZM175.309 82.2588V83.9551H170.774V84.5615H175.546V85.168H169.956V83.4014H174.483V82.8389H169.921V82.2588H175.309ZM171.301 77.5127C172.47 77.5127 173.261 77.9785 173.27 78.6992C173.261 79.4375 172.47 79.877 171.301 79.877C170.106 79.877 169.323 79.4375 169.332 78.6992C169.323 77.9785 170.106 77.5127 171.301 77.5127ZM171.301 78.0752C170.571 78.0752 170.114 78.3213 170.114 78.6992C170.114 79.0771 170.571 79.3145 171.301 79.3145C172.013 79.3145 172.479 79.0771 172.479 78.6992C172.479 78.3213 172.013 78.0752 171.301 78.0752ZM180.783 84.5879C179.403 84.5879 178.436 83.8408 178.445 82.8037C178.436 81.9863 179.025 81.3184 179.772 81.2041V81.1689C179.121 81.0195 178.682 80.4395 178.682 79.7451C178.682 78.7695 179.57 78.0488 180.783 78.0488C181.987 78.0488 182.866 78.7695 182.874 79.7451C182.866 80.4395 182.426 81.0195 181.785 81.1689V81.2041C182.523 81.3184 183.112 81.9863 183.121 82.8037C183.112 83.8408 182.145 84.5879 180.783 84.5879ZM180.783 83.7881C181.609 83.7881 182.136 83.3574 182.136 82.7334C182.136 82.0742 181.565 81.5996 180.783 81.5996C179.992 81.5996 179.412 82.0742 179.429 82.7334C179.412 83.3574 179.939 83.7881 180.783 83.7881ZM180.783 80.835C181.451 80.835 181.925 80.4307 181.925 79.833C181.925 79.2441 181.459 78.8398 180.783 78.8398C180.079 78.8398 179.622 79.2354 179.622 79.833C179.622 80.4307 180.106 80.835 180.783 80.835ZM185.857 77.6357C187.044 77.6445 187.914 78.374 187.923 79.4023C187.914 80.4395 187.044 81.1602 185.857 81.1602C184.662 81.1602 183.783 80.4395 183.783 79.4023C183.783 78.374 184.662 77.6445 185.857 77.6357ZM185.857 78.3389C185.128 78.3301 184.592 78.7607 184.601 79.4023C184.592 80.0527 185.128 80.4834 185.857 80.4834C186.578 80.4834 187.114 80.0527 187.114 79.4023C187.114 78.7607 186.578 78.3301 185.857 78.3389ZM190.155 77.3721V81.3799H189.32V77.3721H190.155ZM190.155 81.7402V83.7266H185.813V84.4824H190.419V85.1504H185.005V83.1025H189.329V82.4082H184.979V81.7402H190.155ZM193.625 82.0742C193.634 80.4219 194.1 79.042 194.926 77.8643H195.787C195.181 78.7344 194.601 80.5098 194.601 82.0742C194.601 83.6475 195.181 85.4141 195.787 86.293H194.926C194.1 85.1152 193.634 83.7354 193.625 82.0742ZM202.532 81.4062V82.0742H200.15V83.6123H203.349V84.2979H196.142V83.6123H199.315V82.0742H197.048V77.9785H202.453V78.6641H197.891V79.6748H202.286V80.334H197.891V81.4062H202.532ZM205.858 82.0742C205.849 83.7354 205.383 85.1152 204.557 86.293H203.696C204.302 85.4141 204.882 83.6475 204.882 82.0742C204.882 80.5098 204.302 78.7344 203.696 77.8643H204.557C205.383 79.042 205.849 80.4219 205.858 82.0742Z" fill="#9FB0F1"/>
<rect x="125" y="214" width="90" height="18" rx="8" fill="#EDF1FF"/>
<path d="M133.562 226.5V225.797L135.769 223.573C136.463 222.844 136.814 222.439 136.814 221.886C136.814 221.262 136.305 220.857 135.637 220.857C134.934 220.857 134.477 221.306 134.477 221.982H133.562C133.554 220.822 134.441 220.049 135.654 220.049C136.885 220.049 137.729 220.822 137.737 221.859C137.729 222.571 137.395 223.134 136.199 224.312L134.907 225.621V225.674H137.843V226.5H133.562ZM140.905 226.588C139.428 226.588 138.567 225.401 138.567 223.318C138.567 221.253 139.446 220.049 140.905 220.049C142.364 220.049 143.243 221.253 143.243 223.318C143.243 225.401 142.373 226.588 140.905 226.588ZM140.905 225.753C141.766 225.753 142.276 224.909 142.276 223.318C142.276 221.736 141.757 220.866 140.905 220.866C140.052 220.866 139.534 221.736 139.534 223.318C139.534 224.909 140.044 225.753 140.905 225.753ZM144.02 226.5V225.797L146.226 223.573C146.92 222.844 147.272 222.439 147.272 221.886C147.272 221.262 146.762 220.857 146.094 220.857C145.391 220.857 144.934 221.306 144.934 221.982H144.02C144.011 220.822 144.899 220.049 146.112 220.049C147.342 220.049 148.186 220.822 148.195 221.859C148.186 222.571 147.852 223.134 146.656 224.312L145.364 225.621V225.674H148.3V226.5H144.02ZM151.309 226.588C150.105 226.588 149.2 225.85 149.156 224.839H150.096C150.149 225.384 150.668 225.779 151.309 225.779C152.083 225.779 152.637 225.217 152.637 224.461C152.637 223.688 152.065 223.125 151.265 223.116C150.756 223.116 150.369 223.283 150.149 223.679H149.235L149.648 220.137H153.252V220.963H150.448L150.237 222.747H150.299C150.562 222.492 151.011 222.316 151.494 222.316C152.689 222.316 153.577 223.204 153.577 224.435C153.577 225.691 152.637 226.588 151.309 226.588ZM160.673 219.381V225.199H159.838V222.519H157.676V221.851H159.838V221.024H157.676V220.356H159.838V219.381H160.673ZM160.875 226.403V227.08H155.54V224.689H156.384V226.403H160.875ZM155.4 219.926V223.371C156.446 223.371 157.439 223.305 158.564 223.099L158.652 223.784C157.404 224.021 156.34 224.065 155.18 224.074H154.574V219.926H155.4ZM163.906 226.5V225.797L166.112 223.573C166.806 222.844 167.158 222.439 167.158 221.886C167.158 221.262 166.648 220.857 165.98 220.857C165.277 220.857 164.82 221.306 164.82 221.982H163.906C163.897 220.822 164.785 220.049 165.998 220.049C167.228 220.049 168.072 220.822 168.081 221.859C168.072 222.571 167.738 223.134 166.543 224.312L165.251 225.621V225.674H168.186V226.5H163.906ZM175.309 219.381V223.995H174.474V223.617H172.936V223.09H174.474V219.381H175.309ZM168.743 222.281C170.264 222.29 172.197 222.272 173.894 222.088L173.938 222.624C173.195 222.725 172.426 222.787 171.67 222.826V224.013H170.844V222.861C170.132 222.879 169.455 222.883 168.84 222.879L168.743 222.281ZM175.309 224.259V225.955H170.774V226.562H175.546V227.168H169.956V225.401H174.483V224.839H169.921V224.259H175.309ZM171.301 219.513C172.47 219.513 173.261 219.979 173.27 220.699C173.261 221.438 172.47 221.877 171.301 221.877C170.106 221.877 169.323 221.438 169.332 220.699C169.323 219.979 170.106 219.513 171.301 219.513ZM171.301 220.075C170.571 220.075 170.114 220.321 170.114 220.699C170.114 221.077 170.571 221.314 171.301 221.314C172.013 221.314 172.479 221.077 172.479 220.699C172.479 220.321 172.013 220.075 171.301 220.075ZM180.747 220.049C181.916 220.058 183.147 220.761 183.147 223.09C183.147 225.322 182.189 226.588 180.66 226.588C179.491 226.588 178.664 225.867 178.515 224.83H179.473C179.605 225.366 180.018 225.744 180.66 225.744C181.644 225.744 182.215 224.883 182.224 223.433H182.145C181.802 223.969 181.204 224.294 180.519 224.294C179.376 224.294 178.462 223.424 178.462 222.202C178.462 220.989 179.368 220.04 180.747 220.049ZM180.747 220.857C179.974 220.857 179.403 221.455 179.403 222.185C179.403 222.923 179.956 223.503 180.73 223.503C181.495 223.503 182.092 222.879 182.092 222.176C182.092 221.49 181.53 220.857 180.747 220.857ZM185.901 219.636C187.088 219.645 187.958 220.374 187.967 221.402C187.958 222.439 187.088 223.16 185.901 223.16C184.706 223.16 183.827 222.439 183.827 221.402C183.827 220.374 184.706 219.645 185.901 219.636ZM185.901 220.339C185.172 220.33 184.636 220.761 184.645 221.402C184.636 222.053 185.172 222.483 185.901 222.483C186.622 222.483 187.158 222.053 187.158 221.402C187.158 220.761 186.622 220.33 185.901 220.339ZM190.199 219.372V223.38H189.364V219.372H190.199ZM190.199 223.74V225.727H185.857V226.482H190.463V227.15H185.049V225.103H189.373V224.408H185.022V223.74H190.199ZM193.669 224.074C193.678 222.422 194.144 221.042 194.97 219.864H195.831C195.225 220.734 194.645 222.51 194.645 224.074C194.645 225.647 195.225 227.414 195.831 228.293H194.97C194.144 227.115 193.678 225.735 193.669 224.074ZM198.419 219.636C199.605 219.645 200.475 220.374 200.484 221.402C200.475 222.439 199.605 223.16 198.419 223.16C197.223 223.16 196.345 222.439 196.345 221.402C196.345 220.374 197.223 219.645 198.419 219.636ZM198.419 220.339C197.689 220.33 197.153 220.761 197.162 221.402C197.153 222.053 197.689 222.483 198.419 222.483C199.139 222.483 199.676 222.053 199.676 221.402C199.676 220.761 199.139 220.33 198.419 220.339ZM202.717 219.372V223.38H201.882V219.372H202.717ZM202.717 223.74V225.727H198.375V226.482H202.98V227.15H197.566V225.103H201.89V224.408H197.54V223.74H202.717ZM205.902 224.074C205.893 225.735 205.427 227.115 204.601 228.293H203.74C204.346 227.414 204.926 225.647 204.926 224.074C204.926 222.51 204.346 220.734 203.74 219.864H204.601C205.427 221.042 205.893 222.422 205.902 224.074Z" fill="#9FB0F1"/>
<path d="M226.876 269.347C228.563 269.355 229.785 270.182 229.785 271.438C229.785 272.621 228.761 273.398 227.289 273.521V275.068H230.497V275.763H223.29V275.068H226.463V273.521C225 273.398 223.976 272.621 223.976 271.438C223.976 270.182 225.197 269.355 226.876 269.347ZM226.876 270.032C225.663 270.023 224.784 270.586 224.784 271.438C224.784 272.326 225.663 272.871 226.876 272.88C228.098 272.871 228.977 272.326 228.977 271.438C228.977 270.586 228.098 270.023 226.876 270.032ZM237.62 269.742V270.428H231.213V269.742H234.016V268.837H234.842V269.742H237.62ZM238.05 273.97V274.655H234.842V276.756H234.016V274.655H230.843V273.97H238.05ZM234.429 270.832C236.064 270.832 237.048 271.298 237.048 272.159C237.048 273.003 236.064 273.469 234.429 273.478C232.786 273.469 231.801 273.003 231.81 272.159C231.801 271.298 232.786 270.832 234.429 270.832ZM234.429 271.456C233.296 271.456 232.671 271.702 232.671 272.159C232.671 272.599 233.296 272.845 234.429 272.845C235.554 272.845 236.178 272.599 236.187 272.159C236.178 271.702 235.554 271.456 234.429 271.456ZM240.501 274.761V273.979L243.313 269.637H244.509V273.943H245.379V274.761H244.509V276H243.595V274.761H240.501ZM241.52 273.943H243.595V270.788H243.524L241.52 273.891V273.943ZM246.753 276.062C246.411 276.062 246.121 275.78 246.129 275.438C246.121 275.095 246.411 274.813 246.753 274.813C247.087 274.813 247.377 275.095 247.377 275.438C247.377 275.78 247.087 276.062 246.753 276.062ZM246.753 272.59C246.411 272.59 246.121 272.309 246.129 271.966C246.121 271.623 246.411 271.342 246.753 271.342C247.087 271.342 247.377 271.623 247.377 271.966C247.377 272.309 247.087 272.59 246.753 272.59ZM250.492 276.088C249.016 276.088 248.154 274.901 248.154 272.818C248.154 270.753 249.033 269.549 250.492 269.549C251.951 269.549 252.83 270.753 252.83 272.818C252.83 274.901 251.96 276.088 250.492 276.088ZM250.492 275.253C251.354 275.253 251.863 274.409 251.863 272.818C251.863 271.236 251.345 270.366 250.492 270.366C249.64 270.366 249.121 271.236 249.121 272.818C249.121 274.409 249.631 275.253 250.492 275.253ZM255.822 276.088C254.345 276.088 253.484 274.901 253.484 272.818C253.484 270.753 254.363 269.549 255.822 269.549C257.281 269.549 258.16 270.753 258.16 272.818C258.16 274.901 257.29 276.088 255.822 276.088ZM255.822 275.253C256.683 275.253 257.193 274.409 257.193 272.818C257.193 271.236 256.674 270.366 255.822 270.366C254.969 270.366 254.451 271.236 254.451 272.818C254.451 274.409 254.961 275.253 255.822 275.253Z" fill="#C0C0C0"/>
<path d="M325.066 169.758C325.41 168.894 324.492 168.069 323.67 168.504L320.164 170.357C320.107 170.388 320.047 170.412 319.985 170.431L313.604 172.352C312.88 172.57 312.65 173.482 313.185 174.017L319.396 180.228C319.904 180.737 320.767 180.559 321.033 179.891L325.066 169.758Z" fill="#5175FF"/>
<path d="M326.066 309.758C326.41 308.894 325.492 308.069 324.67 308.504L321.164 310.357C321.107 310.388 321.047 310.412 320.985 310.431L314.604 312.352C313.88 312.57 313.65 313.482 314.185 314.017L320.396 320.228C320.904 320.737 321.767 320.559 322.033 319.891L326.066 309.758Z" fill="#5175FF"/>
<defs>
<filter id="filter0_d_2011_15673" x="273.475" y="104.475" width="56.0494" height="34.0494" filterUnits="userSpaceOnUse" color-interpolation-filters="sRGB">
<feFlood flood-opacity="0" result="BackgroundImageFix"/>
<feColorMatrix in="SourceAlpha" type="matrix" values="0 0 0 0 0 0 0 0 0 0 0 0 0 0 0 0 0 0 127 0" result="hardAlpha"/>
<feOffset/>
<feGaussianBlur stdDeviation="0.762357"/>
<feComposite in2="hardAlpha" operator="out"/>
<feColorMatrix type="matrix" values="0 0 0 0 0.569433 0 0 0 0 0.649592 0 0 0 0 0.956868 0 0 0 1 0"/>
<feBlend mode="normal" in2="BackgroundImageFix" result="effect1_dropShadow_2011_15673"/>
<feBlend mode="normal" in="SourceGraphic" in2="effect1_dropShadow_2011_15673" result="shape"/>
</filter>
<filter id="filter1_d_2011_15673" x="261.475" y="246.475" width="68.0494" height="34.0494" filterUnits="userSpaceOnUse" color-interpolation-filters="sRGB">
<feFlood flood-opacity="0" result="BackgroundImageFix"/>
<feColorMatrix in="SourceAlpha" type="matrix" values="0 0 0 0 0 0 0 0 0 0 0 0 0 0 0 0 0 0 127 0" result="hardAlpha"/>
<feOffset/>
<feGaussianBlur stdDeviation="0.762357"/>
<feComposite in2="hardAlpha" operator="out"/>
<feColorMatrix type="matrix" values="0 0 0 0 0.569433 0 0 0 0 0.649592 0 0 0 0 0.956868 0 0 0 1 0"/>
<feBlend mode="normal" in2="BackgroundImageFix" result="effect1_dropShadow_2011_15673"/>
<feBlend mode="normal" in="SourceGraphic" in2="effect1_dropShadow_2011_15673" result="shape"/>
</filter>
<filter id="filter2_d_2011_15673" x="188.475" y="141.475" width="141.049" height="34.0494" filterUnits="userSpaceOnUse" color-interpolation-filters="sRGB">
<feFlood flood-opacity="0" result="BackgroundImageFix"/>
<feColorMatrix in="SourceAlpha" type="matrix" values="0 0 0 0 0 0 0 0 0 0 0 0 0 0 0 0 0 0 127 0" result="hardAlpha"/>
<feOffset/>
<feGaussianBlur stdDeviation="0.762357"/>
<feComposite in2="hardAlpha" operator="out"/>
<feColorMatrix type="matrix" values="0 0 0 0 0.569433 0 0 0 0 0.649592 0 0 0 0 0.956868 0 0 0 1 0"/>
<feBlend mode="normal" in2="BackgroundImageFix" result="effect1_dropShadow_2011_15673"/>
<feBlend mode="normal" in="SourceGraphic" in2="effect1_dropShadow_2011_15673" result="shape"/>
</filter>
<filter id="filter3_d_2011_15673" x="296.475" y="283.475" width="33.0494" height="34.0494" filterUnits="userSpaceOnUse" color-interpolation-filters="sRGB">
<feFlood flood-opacity="0" result="BackgroundImageFix"/>
<feColorMatrix in="SourceAlpha" type="matrix" values="0 0 0 0 0 0 0 0 0 0 0 0 0 0 0 0 0 0 127 0" result="hardAlpha"/>
<feOffset/>
<feGaussianBlur stdDeviation="0.762357"/>
<feComposite in2="hardAlpha" operator="out"/>
<feColorMatrix type="matrix" values="0 0 0 0 0.569433 0 0 0 0 0.649592 0 0 0 0 0.956868 0 0 0 1 0"/>
<feBlend mode="normal" in2="BackgroundImageFix" result="effect1_dropShadow_2011_15673"/>
<feBlend mode="normal" in="SourceGraphic" in2="effect1_dropShadow_2011_15673" result="shape"/>
</filter>
<clipPath id="clip0_2011_15673">
<rect width="17" height="17" fill="white" transform="translate(263 33)"/>
</clipPath>
</defs>
</svg>
