<svg width="24" height="25" viewBox="0 0 24 25" fill="none" xmlns="http://www.w3.org/2000/svg">
<g clip-path="url(#clip0_951_12312)">
<path d="M21 10.5C21 17.5 12 23.5 12 23.5C12 23.5 3 17.5 3 10.5C3 8.11305 3.94821 5.82387 5.63604 4.13604C7.32387 2.44821 9.61305 1.5 12 1.5C14.3869 1.5 16.6761 2.44821 18.364 4.13604C20.0518 5.82387 21 8.11305 21 10.5Z" stroke="#5175FF" stroke-width="2" stroke-linecap="round" stroke-linejoin="round"/>
<circle cx="12" cy="10.5" r="4" stroke="#5175FF" stroke-width="2"/>
<path fill-rule="evenodd" clip-rule="evenodd" d="M3 10.5L5 17L12 23.5L18.5 18.5L21.5 9.5L18 3L11 1.5L5 4.5L3 10.5ZM7 10L8.5 14L13.5 14.5L17 11.5L15 6.5L10.5 7.5L7 10Z" fill="#5175FF"/>
</g>
<defs>
<clipPath id="clip0_951_12312">
<rect width="24" height="24" fill="white" transform="translate(0 0.5)"/>
</clipPath>
</defs>
</svg>
