<svg width="16" height="16" viewBox="0 0 16 16" fill="none" xmlns="http://www.w3.org/2000/svg">
<g clip-path="url(#clip0_1425_13389)">
<path d="M1.33594 4.0026H14.6693M6.66927 7.33594V10.6693M9.33594 7.33594V10.6693M2.66927 4.0026H13.3359L12.2826 13.4826C12.2465 13.8089 12.0913 14.1103 11.8468 14.3293C11.6022 14.5482 11.2855 14.6693 10.9573 14.6693H5.04794C4.71969 14.6693 4.40298 14.5482 4.15844 14.3293C3.91389 14.1103 3.75871 13.8089 3.7226 13.4826L2.66927 4.0026ZM4.89927 2.1006C5.00711 1.87192 5.17774 1.6786 5.39127 1.54321C5.60481 1.40782 5.85243 1.33593 6.10527 1.33594H9.89994C10.1529 1.33581 10.4007 1.40763 10.6143 1.54303C10.828 1.67843 10.9987 1.87181 11.1066 2.1006L12.0026 4.0026H4.0026L4.89927 2.1006Z" stroke="#919191" stroke-width="1.33333" stroke-linecap="round" stroke-linejoin="round"/>
</g>
<defs>
<clipPath id="clip0_1425_13389">
<rect width="16" height="16" fill="white"/>
</clipPath>
</defs>
</svg>
