<svg width="10" height="14" viewBox="0 0 10 14" fill="none" xmlns="http://www.w3.org/2000/svg">
<path d="M5.0026 13.6654C4.84705 13.6654 4.71372 13.6209 4.6026 13.532C4.49149 13.4431 4.40816 13.3265 4.3526 13.182C4.14149 12.5598 3.87483 11.9765 3.5526 11.432C3.24149 10.8876 2.8026 10.2487 2.23594 9.51536C1.66927 8.78203 1.20816 8.08203 0.852604 7.41536C0.50816 6.7487 0.335938 5.94314 0.335938 4.9987C0.335938 3.6987 0.785937 2.5987 1.68594 1.6987C2.59705 0.787587 3.7026 0.332031 5.0026 0.332031C6.3026 0.332031 7.4026 0.787587 8.3026 1.6987C9.21372 2.5987 9.66927 3.6987 9.66927 4.9987C9.66927 6.00981 9.47483 6.85425 9.08594 7.53203C8.70816 8.1987 8.26927 8.85981 7.76927 9.51536C7.16927 10.3154 6.71372 10.982 6.4026 11.5154C6.1026 12.0376 5.8526 12.5931 5.6526 13.182C5.59705 13.3376 5.50816 13.4598 5.38594 13.5487C5.27483 13.6265 5.14705 13.6654 5.0026 13.6654ZM5.0026 6.66536C5.46927 6.66536 5.86372 6.50425 6.18594 6.18203C6.50816 5.85981 6.66927 5.46536 6.66927 4.9987C6.66927 4.53203 6.50816 4.13759 6.18594 3.81536C5.86372 3.49314 5.46927 3.33203 5.0026 3.33203C4.53594 3.33203 4.14149 3.49314 3.81927 3.81536C3.49705 4.13759 3.33594 4.53203 3.33594 4.9987C3.33594 5.46536 3.49705 5.85981 3.81927 6.18203C4.14149 6.50425 4.53594 6.66536 5.0026 6.66536Z" fill="#C1C1C1"/>
</svg>
