<svg width="40" height="40" viewBox="0 0 40 40" fill="none" xmlns="http://www.w3.org/2000/svg">
<circle cx="20" cy="20" r="20" fill="#5175FF"/>
<g clip-path="url(#clip0_1508_15657)">
<path d="M19.5 11.75L26.25 18.5M19.5 11.75L9.8464 21.4036C9.54041 21.7096 9.34192 22.1066 9.28072 22.535L8.62712 27.1101C8.43856 28.4301 9.56993 29.5614 10.8899 29.3729L15.465 28.7193C15.8934 28.6581 16.2904 28.4596 16.5964 28.1536L26.25 18.5M19.5 11.75L22.5858 8.66421C23.3668 7.88317 24.6332 7.88317 25.4142 8.66422L29.3358 12.5858C30.1168 13.3668 30.1168 14.6332 29.3358 15.4142L26.25 18.5M21.75 29.75H28.5" stroke="#EDF1FF" stroke-width="2" stroke-linecap="round"/>
</g>
<defs>
<clipPath id="clip0_1508_15657">
<rect width="24" height="24" fill="white" transform="translate(7 7)"/>
</clipPath>
</defs>
</svg>
