<svg width="16" height="16" viewBox="0 0 16 16" fill="none" xmlns="http://www.w3.org/2000/svg">
<path d="M7.58953 1.65666C7.74122 1.29129 8.25878 1.29129 8.41047 1.65666L10.0645 5.64064C10.1294 5.79701 10.2775 5.90291 10.4465 5.91375L14.8579 6.19684C15.2626 6.22282 15.424 6.73287 15.1078 6.98687L11.7367 9.69486C11.6 9.80466 11.5406 9.98455 11.5851 10.1541L12.6655 14.272C12.7669 14.6584 12.3466 14.972 12.005 14.7648L8.23055 12.4746C8.08887 12.3886 7.91113 12.3886 7.76945 12.4746L3.99496 14.7648C3.6534 14.972 3.23313 14.6584 3.33452 14.272L4.41486 10.1541C4.45935 9.98455 4.39999 9.80466 4.2633 9.69486L0.892234 6.98687C0.57604 6.73287 0.737364 6.22282 1.14211 6.19684L5.55349 5.91375C5.72245 5.90291 5.87058 5.79701 5.9355 5.64064L7.58953 1.65666Z" fill="#C0C0C0" stroke="#C0C0C0" stroke-width="1.33333" stroke-linejoin="round"/>
</svg>
