<svg width="16" height="16" viewBox="0 0 16 16" fill="none" xmlns="http://www.w3.org/2000/svg">
<path d="M7.99967 14.6663C7.84412 14.6663 7.71079 14.6219 7.59968 14.533C7.48856 14.4441 7.40523 14.3275 7.34968 14.183C7.13856 13.5608 6.8719 12.9775 6.54967 12.433C6.23856 11.8886 5.79967 11.2497 5.23301 10.5163C4.66634 9.78301 4.20523 9.08301 3.84967 8.41634C3.50523 7.74967 3.33301 6.94412 3.33301 5.99967C3.33301 4.69967 3.78301 3.59967 4.68301 2.69967C5.59412 1.78856 6.69967 1.33301 7.99967 1.33301C9.29967 1.33301 10.3997 1.78856 11.2997 2.69967C12.2108 3.59967 12.6663 4.69967 12.6663 5.99967C12.6663 7.01079 12.4719 7.85523 12.083 8.53301C11.7052 9.19967 11.2663 9.86078 10.7663 10.5163C10.1663 11.3163 9.71079 11.983 9.39967 12.5163C9.09968 13.0386 8.84968 13.5941 8.64967 14.183C8.59412 14.3386 8.50523 14.4608 8.38301 14.5497C8.2719 14.6275 8.14412 14.6663 7.99967 14.6663ZM7.99967 7.66634C8.46634 7.66634 8.86079 7.50523 9.18301 7.18301C9.50523 6.86079 9.66634 6.46634 9.66634 5.99967C9.66634 5.53301 9.50523 5.13856 9.18301 4.81634C8.86079 4.49412 8.46634 4.33301 7.99967 4.33301C7.53301 4.33301 7.13856 4.49412 6.81634 4.81634C6.49412 5.13856 6.33301 5.53301 6.33301 5.99967C6.33301 6.46634 6.49412 6.86079 6.81634 7.18301C7.13856 7.50523 7.53301 7.66634 7.99967 7.66634Z" fill="#C1C1C1"/>
</svg>
