<svg width="24" height="24" viewBox="0 0 24 24" fill="none" xmlns="http://www.w3.org/2000/svg">
<path d="M8.99945 12C8.99945 13.6569 10.3426 15 11.9994 15C13.6563 15 14.9994 13.6569 14.9994 12C14.9994 10.3431 13.6563 9 11.9994 9C10.3426 9 8.99945 10.3431 8.99945 12Z" stroke="black" stroke-width="2"/>
<path d="M14.4604 2.30508C14.7876 2.38787 15.0006 2.68633 15.0766 3.01511C15.2575 3.79693 15.7498 4.50461 16.4996 4.9375C17.1886 5.33529 17.9697 5.42872 18.6875 5.2595C19.0155 5.18215 19.3769 5.24076 19.5962 5.49671C20.3974 6.4317 21.0289 7.51632 21.4432 8.70289C21.5684 9.0617 21.3863 9.44185 21.093 9.68352C20.4252 10.2338 19.9995 11.0672 19.9995 12C19.9995 12.9328 20.4252 13.7662 21.093 14.3165C21.3863 14.5581 21.5684 14.9383 21.4432 15.2971C21.029 16.4835 20.3975 17.5681 19.5965 18.503C19.3772 18.759 19.0157 18.8176 18.6876 18.7402C17.9699 18.5709 17.1886 18.6643 16.4995 19.0621C15.7496 19.4951 15.2574 20.2029 15.0765 20.9848C15.0005 21.3136 14.7875 21.6122 14.4603 21.695C13.6731 21.8942 12.8486 22 11.9995 22C11.1503 22 10.3259 21.8942 9.53873 21.695C9.21153 21.6122 8.99855 21.3137 8.9225 20.9848C8.74165 20.2029 8.24939 19.4951 7.4995 19.0621C6.81042 18.6643 6.02912 18.5709 5.31134 18.7402C4.98324 18.8176 4.62179 18.759 4.40246 18.503C3.60141 17.5681 2.96995 16.4836 2.55576 15.2971C2.4305 14.9383 2.61258 14.5582 2.9059 14.3165C3.57371 13.7663 3.99949 12.9329 3.99949 12C3.99949 11.0671 3.57371 10.2337 2.9059 9.68351C2.61258 9.44184 2.4305 9.06169 2.55576 8.70287C2.97 7.5163 3.60155 6.43167 4.40272 5.49667C4.62205 5.24072 4.98345 5.18212 5.31152 5.25948C6.02925 5.42873 6.81048 5.33531 7.4995 4.9375C8.2493 4.5046 8.74154 3.79691 8.92244 3.01508C8.99851 2.6863 9.21149 2.38783 9.53865 2.30504C10.3259 2.10584 11.1503 2 11.9995 2C12.8487 2 13.6732 2.10585 14.4604 2.30508Z" stroke="black" stroke-width="2"/>
</svg>