<svg width="10" height="14" viewBox="0 0 10 14" fill="none" xmlns="http://www.w3.org/2000/svg">
<path d="M9.02918 7C9.02129 6.72379 8.91869 6.48704 8.70561 6.27396L2.56582 0.26832C2.38431 0.0947012 2.17123 0 1.9108 0C1.38205 0 0.97168 0.410372 0.97168 0.939121C0.97168 1.19166 1.07427 1.42841 1.25578 1.60992L6.78002 7L1.25578 12.3901C1.07427 12.5716 0.97168 12.8005 0.97168 13.0609C0.97168 13.5896 1.38205 14 1.9108 14C2.16334 14 2.38431 13.9053 2.56582 13.7317L8.70561 7.71815C8.92658 7.51297 9.02918 7.27621 9.02918 7Z" fill="#4C56BB"/>
</svg>
