<svg width="10" height="14" viewBox="0 0 10 14" fill="none" xmlns="http://www.w3.org/2000/svg">
<path d="M0.970823 7C0.978715 7.27621 1.08131 7.51296 1.29439 7.72604L7.43418 13.7317C7.61569 13.9053 7.82877 14 8.0892 14C8.61795 14 9.02832 13.5896 9.02832 13.0609C9.02832 12.8083 8.92573 12.5716 8.74422 12.3901L3.21998 7L8.74422 1.60992C8.92573 1.42841 9.02832 1.19955 9.02832 0.93912C9.02832 0.410372 8.61795 0 8.0892 0C7.83666 0 7.61569 0.0947008 7.43418 0.26832L1.29439 6.28185C1.07342 6.48703 0.970823 6.72379 0.970823 7Z" fill="#4C56BB"/>
</svg>
