<svg width="48" height="48" viewBox="0 0 48 48" fill="none" xmlns="http://www.w3.org/2000/svg">
<rect width="48" height="48" rx="13.0699" fill="#F1F3FD"/>
<path d="M24.2457 8.56433C16.6477 8.56433 10.4873 14.4945 10.4873 21.8085C10.4873 22.0388 10.4932 22.2673 10.505 22.4938L10.4873 22.4976C10.4873 22.4976 10.4853 23.485 10.9149 25.0954C10.9188 25.1105 10.9227 25.1275 10.9266 25.1426C11.3091 26.5586 12.0249 28.4447 13.3743 30.5838C13.3743 30.5838 13.3743 30.5838 13.3743 30.5857C14.6511 32.6813 17.2851 36.0476 22.506 39.8934C23.5239 40.6429 24.9439 40.6108 25.9304 39.8254C27.8427 38.3018 31.0042 35.6209 33.397 32.7701C33.397 32.7701 37.1058 28.9299 37.8177 23.9664C37.8177 23.9532 37.8197 23.9438 37.8217 23.9306C37.9374 23.2396 38.0001 22.5316 38.0001 21.8085C38.0001 14.4945 31.8397 8.56433 24.2417 8.56433L24.2457 8.56433ZM24.2457 27.7556C20.833 27.7556 18.0676 25.0936 18.0676 21.8085C18.0676 18.5234 20.833 15.8614 24.2457 15.8614C27.6583 15.8614 30.4237 18.5234 30.4237 21.8085C30.4237 25.0936 27.6583 27.7556 24.2457 27.7556Z" fill="#5175FF"/>
<rect width="11.5315" height="3.24005" rx="1.62002" transform="matrix(-0.707107 -0.707107 -0.707107 0.707107 33.1099 28.0806)" fill="#F1F3FD"/>
<circle cx="24.3798" cy="21.6397" r="7.35491" fill="#F1F3FD"/>
<circle cx="24.3801" cy="21.6397" r="1.36202" fill="#5175FF"/>
<rect x="23.5625" y="21.6398" width="3.81366" height="1.36202" rx="0.681011" transform="rotate(-90 23.5625 21.6398)" fill="#5175FF"/>
<rect x="24.3799" y="20.8225" width="3.81366" height="1.36202" rx="0.68101" fill="#5175FF"/>
</svg>
