<svg width="24" height="24" viewBox="0 0 24 24" fill="none" xmlns="http://www.w3.org/2000/svg">
<rect width="24" height="24" fill="#313131"/>
<path d="M15 14H9" stroke="#C0C0C0" stroke-width="2" stroke-linecap="round" stroke-linejoin="round"/>
<path d="M12 17L12 11" stroke="#C0C0C0" stroke-width="2" stroke-linecap="round" stroke-linejoin="round"/>
<path d="M7 2V5M17 2V5" stroke="#C0C0C0" stroke-width="2" stroke-linecap="round"/>
<path d="M20.9932 7C20.9975 7.14731 21 7.33794 21 7.59961V15.5996C21 17.1262 20.9995 18.208 20.9307 19.0273C20.8616 19.8482 20.7319 20.2673 20.5664 20.5322C20.4387 20.7366 20.3079 20.8356 19.9844 20.9053C19.5685 20.9948 18.9873 21 18 21H6C5.01266 21 4.43153 20.9948 4.01562 20.9053C3.69214 20.8356 3.5613 20.7366 3.43359 20.5322C3.26814 20.2673 3.13836 19.8482 3.06934 19.0273C3.00045 18.208 3 17.1262 3 15.5996V7.59961C3 7.3381 3.0025 7.14744 3.00684 7H20.9932Z" stroke="#C0C0C0" stroke-width="2"/>
<path d="M2.586 3.57097C2 4.14195 2 4.188 2 6.02564C2 6.48359 2 7.71451 2.146 7.85774C2.293 8 2.529 8 3 8H21C21.47 8 21.707 8 21.854 7.85774C22 7.71451 22 6.48456 22 6.02564C22 4.188 22 4.14195 21.414 3.57097C20.828 3 19.886 3 18 3H6C4.114 3 3.172 3 2.586 3.57097Z" fill="#C0C0C0"/>
</svg>
