<svg  viewBox="0 0 18 18" fill="none" xmlns="http://www.w3.org/2000/svg">
<path d="M1.50146 5.60294C1.50146 4.02203 1.50146 3.23241 1.94096 2.74121C2.38046 2.25 3.08696 2.25 4.50146 2.25H13.5015C14.916 2.25 15.6225 2.25 16.062 2.74121C16.5015 3.23241 16.5015 4.02203 16.5015 5.60294C16.5015 5.99775 16.5015 6.19557 16.392 6.31879C16.2817 6.44118 16.104 6.44118 15.7515 6.44118H2.25146C1.89821 6.44118 1.72121 6.44118 1.61096 6.31879C1.50146 6.19557 1.50146 5.99691 1.50146 5.60294ZM1.50146 13.1471C1.50146 14.728 1.50146 15.5176 1.94096 16.0088C2.38046 16.5 3.08696 16.5 4.50146 16.5H13.5015C14.916 16.5 15.6225 16.5 16.062 16.0088C16.5015 15.5176 16.5015 14.728 16.5015 13.1471V8.95588C16.5015 8.56107 16.5015 8.36325 16.392 8.24003C16.2817 8.11765 16.104 8.11765 15.7515 8.11765H2.25146C1.89821 8.11765 1.72121 8.11765 1.61096 8.24003C1.50146 8.36325 1.50146 8.56191 1.50146 8.95588V13.1471Z" fill="#5175FF"/>
<path d="M5.25146 1.5V3.75M12.7515 1.5V3.75" stroke="#5175FF" stroke-width="1.5" stroke-linecap="round"/>
</svg>
