<svg width="24" height="24" viewBox="0 0 24 24" fill="none" xmlns="http://www.w3.org/2000/svg">
<path d="M2.00195 7.47059C2.00195 5.36271 2.00195 4.30988 2.58795 3.65494C3.17395 3 4.11595 3 6.00195 3H18.002C19.888 3 20.83 3 21.416 3.65494C22.002 4.30988 22.002 5.36271 22.002 7.47059C22.002 7.997 22.002 8.26076 21.856 8.42506C21.709 8.58824 21.472 8.58824 21.002 8.58824H3.00195C2.53095 8.58824 2.29495 8.58824 2.14795 8.42506C2.00195 8.26076 2.00195 7.99588 2.00195 7.47059ZM2.00195 17.5294C2.00195 19.6373 2.00195 20.6901 2.58795 21.3451C3.17395 22 4.11595 22 6.00195 22H18.002C19.888 22 20.83 22 21.416 21.3451C22.002 20.6901 22.002 19.6373 22.002 17.5294V11.9412C22.002 11.4148 22.002 11.151 21.856 10.9867C21.709 10.8235 21.472 10.8235 21.002 10.8235H3.00195C2.53095 10.8235 2.29495 10.8235 2.14795 10.9867C2.00195 11.151 2.00195 11.4159 2.00195 11.9412V17.5294Z" fill="#5175FF"/>
<path d="M7.00195 2V5M17.002 2V5" stroke="#5175FF" stroke-width="2" stroke-linecap="round"/>
</svg>
