<svg width="18" height="19" viewBox="0 0 18 19" fill="none" xmlns="http://www.w3.org/2000/svg">
<path d="M1.50146 6.46525C1.50146 4.88433 1.50146 4.09472 1.94096 3.60351C2.38046 3.1123 3.08696 3.1123 4.50146 3.1123H13.5015C14.916 3.1123 15.6225 3.1123 16.062 3.60351C16.5015 4.09472 16.5015 4.88433 16.5015 6.46525C16.5015 6.86005 16.5015 7.05788 16.392 7.1811C16.2817 7.30348 16.104 7.30348 15.7515 7.30348H2.25146C1.89821 7.30348 1.72121 7.30348 1.61096 7.1811C1.50146 7.05788 1.50146 6.85922 1.50146 6.46525ZM1.50146 14.0094C1.50146 15.5903 1.50146 16.3799 1.94096 16.8711C2.38046 17.3623 3.08696 17.3623 4.50146 17.3623H13.5015C14.916 17.3623 15.6225 17.3623 16.062 16.8711C16.5015 16.3799 16.5015 15.5903 16.5015 14.0094V9.81819C16.5015 9.42338 16.5015 9.22555 16.392 9.10233C16.2817 8.97995 16.104 8.97995 15.7515 8.97995H2.25146C1.89821 8.97995 1.72121 8.97995 1.61096 9.10233C1.50146 9.22555 1.50146 9.42422 1.50146 9.81819V14.0094Z" fill="#FFBB00"/>
<path d="M5.25146 2.3623V4.6123M12.7515 2.3623V4.6123" stroke="#FFBB00" stroke-width="1.5" stroke-linecap="round"/>
</svg>
