<svg width="24" height="24" viewBox="0 0 24 24" fill="none" xmlns="http://www.w3.org/2000/svg">
<path d="M4.00098 14.0006C4.00098 14.0006 5.00098 13.0006 8.00098 13.0006C11.001 13.0006 13.001 15.0006 16.001 15.0006C19.001 15.0006 20.001 14.0006 20.001 14.0006V3.00061C20.001 3.00061 19.001 4.00061 16.001 4.00061C13.001 4.00061 11.001 2.00061 8.00098 2.00061C5.00098 2.00061 4.00098 3.00061 4.00098 3.00061V14.0006ZM4.00098 14.0006V22.0006" stroke="#5175FF" stroke-width="2" stroke-linecap="round" stroke-linejoin="round"/>
<path d="M4.5 13V2.5L7.5 2L13.5 3.5H19.5L20.5 13.5L15.5 15L10.5 13H4.5Z" fill="#5175FF" stroke="#5175FF"/>
</svg>
