<svg width="146" height="43" viewBox="0 0 146 43" fill="none" xmlns="http://www.w3.org/2000/svg">
<g clip-path="url(#clip0_1_4148)">
<path d="M0 41.375V2.97027C0 2.19846 0.379863 1.81128 1.13709 1.81128H16.2941C18.8907 1.81128 21.1749 2.26469 23.1467 3.17405C25.1185 4.08342 26.6404 5.37232 27.71 7.04332C28.7821 8.71431 29.317 10.6528 29.317 12.8536C29.317 13.9744 29.112 15.0748 28.7047 16.1573C28.2973 17.2399 27.7375 18.1875 27.0278 18.9975C26.318 19.8101 25.5358 20.3985 24.6811 20.7653C25.9332 21.1703 27.0503 21.8657 28.0374 22.8515C29.0221 23.8373 29.7968 25.0167 30.3541 26.3871C30.9139 27.76 31.1938 29.189 31.1938 30.6766C31.1938 33.0532 30.639 35.1369 29.5294 36.9225C28.4198 38.7106 26.8653 40.0912 24.8661 41.0668C22.8668 42.0424 20.5576 42.5315 17.941 42.5315H1.13709C0.379863 42.5315 0 42.1443 0 41.3725V41.375ZM17.8736 17.4055C18.5658 17.0387 19.1056 16.5369 19.4955 15.8975C19.8828 15.2607 20.0778 14.5653 20.0778 13.8113C20.0778 12.6523 19.6804 11.7099 18.8832 10.9864C18.086 10.2605 17.0339 9.89878 15.7268 9.89878H9.1867V17.9557H15.4994C16.3891 17.9557 17.1813 17.7723 17.8736 17.4055ZM20.5901 33.3028C21.4623 32.3858 21.8971 31.1835 21.8971 29.6934C21.8971 28.8426 21.6847 28.0504 21.2574 27.3168C20.83 26.5832 20.2277 25.9923 19.453 25.549C18.6758 25.1058 17.7761 24.8817 16.7515 24.8817H9.1867V34.6784H17.1488C18.5708 34.6784 19.7179 34.2198 20.5901 33.3028Z" fill="#F1F3FD"/>
<path d="M71.637 41.6731C71.637 41.9508 71.5495 42.1647 71.3746 42.3125C71.1996 42.4602 70.9572 42.5366 70.6448 42.5366H63.3175C62.6552 42.5366 62.2179 42.208 62.0029 41.556L59.8437 35.4273H44.1669L42.0351 41.556C41.8402 42.2106 41.4028 42.5366 40.7206 42.5366H33.3932C33.0808 42.5366 32.8334 42.4628 32.6485 42.3125C32.4636 42.1647 32.3711 41.9508 32.3711 41.6731C32.3711 41.5152 32.4011 41.3471 32.4586 41.1662L47.5256 1.62283C47.7581 0.988571 48.2079 0.670166 48.8677 0.670166H55.2029C55.8826 0.670166 56.3425 0.988571 56.5749 1.62283L71.5495 41.1662C71.607 41.3445 71.637 41.5127 71.637 41.6731ZM57.1297 27.3016L52.4589 13.8827L51.9915 12.1862L51.5817 13.8827L46.9109 27.3016H57.1272H57.1297Z" fill="#F1F3FD"/>
<path d="M75.6553 41.3697V2.73817C75.6553 1.96126 76.0376 1.57153 76.7999 1.57153H92.7041C95.4507 1.57153 97.8823 2.15485 99.999 3.32149C102.116 4.48813 103.765 6.11072 104.947 8.18927C106.129 10.2704 106.722 12.6597 106.722 15.3623C106.722 18.0649 106.174 20.2708 105.077 22.1558C103.98 24.0408 102.451 25.5564 100.486 26.7052L107.524 41.1659C107.639 41.4002 107.696 41.604 107.696 41.7772C107.696 42.0116 107.606 42.195 107.424 42.33C107.241 42.465 106.999 42.5337 106.694 42.5337H98.6845C98.0547 42.5337 97.6074 42.2434 97.34 41.66L91.6195 29.1531C91.2772 29.1735 90.7698 29.1811 90.1026 29.1811H84.9244V41.3671C84.9244 42.144 84.5421 42.5337 83.7798 42.5337H76.7999C76.0376 42.5337 75.6553 42.144 75.6553 41.3671V41.3697ZM94.6634 20.2912C95.4931 19.7869 96.1404 19.1017 96.6077 18.2356C97.0751 17.3721 97.3075 16.4245 97.3075 15.3929C97.3075 14.2466 97.0701 13.2608 96.5927 12.433C96.1154 11.6077 95.4731 10.9861 94.6609 10.5684C93.8512 10.1506 92.9391 9.94177 91.9294 9.94177H84.9219V21.0503H91.8445C92.8941 21.0503 93.8312 20.7981 94.6609 20.2912H94.6634Z" fill="#F1F3FD"/>
<path d="M128.469 0C118.787 0 110.938 8.00089 110.938 17.8689C110.938 18.1797 110.945 18.4879 110.96 18.7936L110.938 18.7987C110.938 18.7987 110.935 20.1309 111.482 22.3037C111.487 22.324 111.492 22.347 111.497 22.3673C111.985 24.2778 112.897 26.8225 114.616 29.7085C114.616 29.7085 114.616 29.7085 114.616 29.711C116.243 32.5385 119.599 37.0802 126.252 42.2689C127.549 43.2802 129.358 43.2369 130.615 42.1772C133.052 40.1216 137.081 36.5045 140.129 32.6582C140.129 32.6582 144.855 27.4771 145.762 20.7804C145.762 20.7626 145.765 20.7498 145.767 20.732C145.915 19.7997 145.995 18.8445 145.995 17.8689C145.995 8.00089 138.145 0 128.464 0L128.469 0ZM128.469 25.8927C124.12 25.8927 120.597 22.3011 120.597 17.8689C120.597 13.4367 124.12 9.84509 128.469 9.84509C132.817 9.84509 136.341 13.4367 136.341 17.8689C136.341 22.3011 132.817 25.8927 128.469 25.8927Z" fill="#F1F3FD"/>
</g>
<defs>
<clipPath id="clip0_1_4148">
<rect width="146" height="43" fill="white"/>
</clipPath>
</defs>
</svg>
