<svg width="24" height="24" viewBox="0 0 24 24" fill="none" xmlns="http://www.w3.org/2000/svg">
<path d="M19.5625 10.625H18.5312V7.53125C18.5312 3.93047 15.6008 1 12 1C8.39922 1 5.46875 3.93047 5.46875 7.53125V10.625H4.4375C3.29883 10.625 2.375 11.5488 2.375 12.6875V20.9375C2.375 22.0762 3.29883 23 4.4375 23H19.5625C20.7012 23 21.625 22.0762 21.625 20.9375V12.6875C21.625 11.5488 20.7012 10.625 19.5625 10.625ZM15.0938 10.625H8.90625V7.53125C8.90625 5.82539 10.2941 4.4375 12 4.4375C13.7059 4.4375 15.0938 5.82539 15.0938 7.53125V10.625Z" fill="#E4EAFC"/>
</svg>
