<svg width="42" height="47" viewBox="0 0 42 47" fill="none" xmlns="http://www.w3.org/2000/svg">
<path fill-rule="evenodd" clip-rule="evenodd" d="M20.625 0C26.0951 0 31.3411 2.17298 35.2091 6.04092C39.077 9.90886 41.25 15.1549 41.25 20.625C41.25 27.6696 37.4092 33.4354 33.3621 37.5719C31.3401 39.6162 29.1338 41.4696 26.7713 43.1085L25.795 43.7731L25.3367 44.0779L24.4727 44.6279L23.7027 45.0977L22.7494 45.6523C22.1023 46.0216 21.3701 46.2159 20.625 46.2159C19.8799 46.2159 19.1477 46.0216 18.5006 45.6523L17.5473 45.0977L16.3556 44.3644L15.9156 44.0779L14.976 43.4523C12.4273 41.7279 10.0533 39.7583 7.88792 37.5719C3.84083 33.4331 0 27.6696 0 20.625C0 15.1549 2.17298 9.90886 6.04092 6.04092C9.90886 2.17298 15.1549 0 20.625 0ZM27.6833 13.711L17.9552 23.4369L13.9035 19.3852C13.4735 18.9555 12.8904 18.7142 12.2825 18.7144C11.6746 18.7146 11.0917 18.9563 10.662 19.3864C10.2323 19.8164 9.99099 20.3995 9.9912 21.0074C9.99142 21.6153 10.2331 22.1982 10.6631 22.6279L16.1723 28.1371C16.4064 28.3713 16.6843 28.5571 16.9903 28.6838C17.2962 28.8106 17.6241 28.8758 17.9552 28.8758C18.2863 28.8758 18.6142 28.8106 18.9202 28.6838C19.2261 28.5571 19.504 28.3713 19.7381 28.1371L30.9215 16.9515C31.3389 16.5192 31.5699 15.9404 31.5647 15.3395C31.5595 14.7386 31.3184 14.1639 30.8935 13.739C30.4686 13.3141 29.8939 13.0731 29.293 13.0678C28.6921 13.0626 28.1155 13.2936 27.6833 13.711Z" fill="white"/>
</svg>
