<svg width="20" height="20" viewBox="0 0 20 20" fill="none" xmlns="http://www.w3.org/2000/svg">
<path d="M17.5 8.33301C17.5 14.1663 10 19.1663 10 19.1663C10 19.1663 2.5 14.1663 2.5 8.33301C2.5 6.34388 3.29018 4.43623 4.6967 3.02971C6.10322 1.62318 8.01088 0.833008 10 0.833008C11.9891 0.833008 13.8968 1.62318 15.3033 3.02971C16.7098 4.43623 17.5 6.34388 17.5 8.33301Z" stroke="#F4F8FB" stroke-width="1.66667" stroke-linecap="round" stroke-linejoin="round"/>
<circle cx="10.0003" cy="8.33333" r="3.33333" stroke="#F4F8FB" stroke-width="1.66667"/>
<path d="M15 2.08301L17.917 7.5L15.417 15L10 19.167L4.16699 13.75L2.5 8.33301L4.16699 3.33301L9.16699 0.833008L15 2.08301ZM8.75 5.83301L5.83301 7.91699L7.08301 11.25L11.25 11.667L14.167 9.16699L12.5 5L8.75 5.83301Z" fill="#F4F8FB"/>
</svg>
