<svg width="18" height="18" viewBox="0 0 18 18" fill="none" xmlns="http://www.w3.org/2000/svg">
<path d="M15.75 7.5C15.75 12.75 9 17.25 9 17.25C9 17.25 2.25 12.75 2.25 7.5C2.25 5.70979 2.96116 3.9929 4.22703 2.72703C5.4929 1.46116 7.20979 0.75 9 0.75C10.7902 0.75 12.5071 1.46116 13.773 2.72703C15.0388 3.9929 15.75 5.70979 15.75 7.5Z" stroke="#FF6467" stroke-width="1.5" stroke-linecap="round" stroke-linejoin="round"/>
<circle cx="9" cy="7.5" r="3" stroke="#FF6467" stroke-width="1.5"/>
<path d="M13.5 1.875L16.125 6.75L13.875 13.5L9 17.25L3.75 12.375L2.25 7.5L3.75 3L8.25 0.75L13.5 1.875ZM7.875 5.25L5.25 7.125L6.375 10.125L10.125 10.5L12.75 8.25L11.25 4.5L7.875 5.25Z" fill="#FF6467"/>
</svg>
