<svg width="101" height="117" viewBox="0 0 101 117" fill="none" xmlns="http://www.w3.org/2000/svg">
<path d="M50.5072 0C22.6148 0 5.90977e-07 21.7696 5.90977e-07 48.6195C5.90977e-07 49.465 0.0215976 50.3036 0.0647969 51.1353L5.90977e-07 51.1492C5.90977e-07 51.1492 -0.00720469 54.774 1.56957 60.686C1.58397 60.7414 1.59837 60.8038 1.61277 60.8592C3.01675 66.0573 5.64471 72.9812 10.5982 80.8338C10.5982 80.8338 10.5982 80.8338 10.5982 80.8407C15.2854 88.5339 24.9548 100.891 44.1209 115.009C47.8576 117.761 53.0704 117.643 56.6919 114.76C63.7118 109.167 75.318 99.3251 84.1019 88.8596C84.1019 88.8596 97.7169 74.7624 100.33 56.5414C100.33 56.4928 100.338 56.4582 100.345 56.4097C100.77 53.873 101 51.274 101 48.6195C101 21.7696 78.3851 0 50.4928 0L50.5072 0ZM50.5072 70.4515C37.9794 70.4515 27.8276 60.679 27.8276 48.6195C27.8276 36.5599 37.9794 26.7875 50.5072 26.7875C63.035 26.7875 73.1868 36.5599 73.1868 48.6195C73.1868 60.679 63.035 70.4515 50.5072 70.4515Z" fill="#F1F3FD"/>
</svg>
