<svg width="20" height="20" viewBox="0 0 20 20" fill="none" xmlns="http://www.w3.org/2000/svg">
<path d="M17.5 8.33398C17.5 14.1673 10 19.1673 10 19.1673C10 19.1673 2.5 14.1673 2.5 8.33398C2.5 6.34486 3.29018 4.43721 4.6967 3.03068C6.10322 1.62416 8.01088 0.833984 10 0.833984C11.9891 0.833984 13.8968 1.62416 15.3033 3.03068C16.7098 4.43721 17.5 6.34486 17.5 8.33398Z" stroke="#F4F8FB" stroke-width="1.66667" stroke-linecap="round" stroke-linejoin="round"/>
<circle cx="10.0003" cy="8.33333" r="3.33333" stroke="#F4F8FB" stroke-width="1.66667"/>
<path d="M15 2.08203L17.917 7.49902L15.417 14.999L10 19.166L4.16699 13.749L2.5 8.33203L4.16699 3.33203L9.16699 0.832031L15 2.08203ZM8.75 5.83203L5.83301 7.91602L7.08301 11.249L11.25 11.666L14.167 9.16602L12.5 4.99902L8.75 5.83203Z" fill="#F4F8FB"/>
</svg>
