<svg width="18" height="19" viewBox="0 0 18 19" fill="none" xmlns="http://www.w3.org/2000/svg">
<g clip-path="url(#clip0_1_2313)">
<path d="M15.75 8.3623C15.75 13.6123 9 18.1123 9 18.1123C9 18.1123 2.25 13.6123 2.25 8.3623C2.25 6.57209 2.96116 4.8552 4.22703 3.58933C5.4929 2.32346 7.20979 1.6123 9 1.6123C10.7902 1.6123 12.5071 2.32346 13.773 3.58933C15.0388 4.8552 15.75 6.57209 15.75 8.3623Z" stroke="#FFBB00" stroke-width="1.5" stroke-linecap="round" stroke-linejoin="round"/>
<circle cx="9" cy="8.3623" r="3" stroke="#FFBB00" stroke-width="1.5"/>
<path d="M13.5 2.7373L16.125 7.6123L13.875 14.3623L9 18.1123L3.75 13.2373L2.25 8.3623L3.75 3.8623L8.25 1.6123L13.5 2.7373ZM7.875 6.1123L5.25 7.9873L6.375 10.9873L10.125 11.3623L12.75 9.1123L11.25 5.3623L7.875 6.1123Z" fill="#FFBB00"/>
</g>
<defs>
<clipPath id="clip0_1_2313">
<rect width="18" height="18" fill="white" transform="translate(0 0.862305)"/>
</clipPath>
</defs>
</svg>
