<svg width="16" height="16" viewBox="0 0 16 16" fill="none" xmlns="http://www.w3.org/2000/svg">
<path d="M8.00016 14.6668C7.84461 14.6668 7.71127 14.6224 7.60016 14.5335C7.48905 14.4446 7.40572 14.3279 7.35016 14.1835C7.13905 13.5613 6.87239 12.9779 6.55016 12.4335C6.23905 11.8891 5.80016 11.2502 5.2335 10.5168C4.66683 9.78349 4.20572 9.0835 3.85016 8.41683C3.50572 7.75016 3.3335 6.94461 3.3335 6.00016C3.3335 4.70016 3.7835 3.60016 4.6835 2.70016C5.59461 1.78905 6.70016 1.3335 8.00016 1.3335C9.30016 1.3335 10.4002 1.78905 11.3002 2.70016C12.2113 3.60016 12.6668 4.70016 12.6668 6.00016C12.6668 7.01127 12.4724 7.85572 12.0835 8.53349C11.7057 9.20016 11.2668 9.86127 10.7668 10.5168C10.1668 11.3168 9.71127 11.9835 9.40016 12.5168C9.10016 13.0391 8.85016 13.5946 8.65016 14.1835C8.59461 14.3391 8.50572 14.4613 8.3835 14.5502C8.27239 14.6279 8.14461 14.6668 8.00016 14.6668ZM8.00016 7.66683C8.46683 7.66683 8.86127 7.50572 9.1835 7.1835C9.50572 6.86127 9.66683 6.46683 9.66683 6.00016C9.66683 5.5335 9.50572 5.13905 9.1835 4.81683C8.86127 4.49461 8.46683 4.3335 8.00016 4.3335C7.5335 4.3335 7.13905 4.49461 6.81683 4.81683C6.49461 5.13905 6.3335 5.5335 6.3335 6.00016C6.3335 6.46683 6.49461 6.86127 6.81683 7.1835C7.13905 7.50572 7.5335 7.66683 8.00016 7.66683Z" fill="#C1C1C1"/>
</svg>
