<svg width="32" height="32" viewBox="0 0 32 32" fill="none" xmlns="http://www.w3.org/2000/svg">
<path d="M15.1791 3.31064C15.4824 2.5799 16.5176 2.57989 16.8209 3.31064L20.129 11.2786C20.2588 11.5913 20.5551 11.8031 20.893 11.8248L29.7158 12.391C30.5253 12.443 30.8479 13.4631 30.2155 13.9711L23.4734 19.387C23.2 19.6066 23.0813 19.9664 23.1703 20.3056L25.331 28.5413C25.5337 29.3142 24.6932 29.9413 24.0101 29.5268L16.4611 24.9465C16.1777 24.7746 15.8223 24.7746 15.5389 24.9465L7.98992 29.5268C7.3068 29.9413 6.46627 29.3142 6.66903 28.5413L8.82972 20.3056C8.9187 19.9664 8.79998 19.6066 8.52661 19.387L1.78447 13.9711C1.15208 13.4631 1.47473 12.443 2.28422 12.391L11.107 11.8248C11.4449 11.8031 11.7412 11.5913 11.871 11.2786L15.1791 3.31064Z" fill="#C0C0C0" stroke="#C0C0C0" stroke-width="2" stroke-linejoin="round"/>
</svg>
