<svg width="24" height="24" viewBox="0 0 24 24" fill="none" xmlns="http://www.w3.org/2000/svg">
<path d="M11.3843 2.48304C11.6118 1.93498 12.3882 1.93498 12.6157 2.48304L15.0967 8.459C15.1941 8.69356 15.4163 8.85241 15.6698 8.86868L22.2868 9.29331C22.894 9.33227 23.1359 10.0974 22.6616 10.4784L17.605 14.5403C17.4 14.705 17.311 14.9749 17.3777 15.2293L18.9982 21.406C19.1503 21.9857 18.5199 22.456 18.0076 22.1452L12.3458 18.7099C12.1333 18.581 11.8667 18.581 11.6542 18.7099L5.99244 22.1452C5.4801 22.456 4.8497 21.9857 5.00177 21.406L6.62229 15.2293C6.68903 14.9749 6.59998 14.705 6.39496 14.5403L1.33835 10.4784C0.864059 10.0974 1.10605 9.33227 1.71317 9.29331L8.33023 8.86868C8.58368 8.85241 8.80587 8.69356 8.90325 8.459L11.3843 2.48304Z" fill="#C0C0C0" stroke="#C0C0C0" stroke-width="2" stroke-linejoin="round"/>
</svg>
