<svg width="24" height="24" viewBox="0 0 24 24" fill="none" xmlns="http://www.w3.org/2000/svg">
<path d="M14.3354 2.30508C14.6459 2.38787 14.848 2.68633 14.9202 3.01511C15.0919 3.79693 15.559 4.50461 16.2705 4.9375C16.9244 5.33529 17.6657 5.42872 18.3468 5.2595C18.6581 5.18215 19.0011 5.24076 19.2092 5.49671C19.9695 6.4317 20.5688 7.51632 20.9619 8.70289C21.0808 9.0617 20.908 9.44185 20.6296 9.68352C19.9959 10.2338 19.5919 11.0672 19.5919 12C19.5919 12.9328 19.9959 13.7662 20.6296 14.3165C20.908 14.5581 21.0808 14.9383 20.9619 15.2971C20.5689 16.4835 19.9696 17.5681 19.2094 18.503C19.0013 18.759 18.6583 18.8176 18.3469 18.7402C17.6658 18.5709 16.9244 18.6643 16.2705 19.0621C15.5588 19.4951 15.0917 20.2029 14.9201 20.9848C14.8479 21.3136 14.6458 21.6122 14.3353 21.695C13.5882 21.8942 12.8058 22 12 22C11.1942 22 10.4119 21.8942 9.6648 21.695C9.3543 21.6122 9.15218 21.3137 9.08001 20.9848C8.90839 20.2029 8.44124 19.4951 7.72961 19.0621C7.07569 18.6643 6.33425 18.5709 5.65308 18.7402C5.34172 18.8176 4.99871 18.759 4.79057 18.503C4.03039 17.5681 3.43115 16.4836 3.03809 15.2971C2.91922 14.9383 3.09201 14.5582 3.37036 14.3165C4.00411 13.7663 4.40816 12.9329 4.40816 12C4.40816 11.0671 4.00411 10.2337 3.37036 9.68351C3.09201 9.44184 2.91922 9.06169 3.03809 8.70287C3.43119 7.5163 4.03053 6.43167 4.79083 5.49667C4.99896 5.24072 5.34192 5.18212 5.65326 5.25948C6.33437 5.42873 7.07575 5.33531 7.72961 4.9375C8.44116 4.5046 8.90828 3.79691 9.07996 3.01508C9.15215 2.6863 9.35426 2.38783 9.66473 2.30504C10.4118 2.10584 11.1942 2 12 2C12.8059 2 13.5883 2.10585 14.3354 2.30508Z" stroke="#C0C0C0" stroke-width="2"/>
<circle cx="12" cy="12" r="3" stroke="#C0C0C0" stroke-width="2"/>
</svg>
