<svg width="16" height="16" viewBox="0 0 16 16" fill="none" xmlns="http://www.w3.org/2000/svg">
<g clip-path="url(#clip0_1_15794)">
<path d="M7.58953 1.65544C7.74122 1.29007 8.25878 1.29007 8.41047 1.65544L10.0645 5.63942C10.1294 5.79579 10.2775 5.90169 10.4465 5.91253L14.8579 6.19562C15.2626 6.2216 15.424 6.73165 15.1078 6.98565L11.7367 9.69364C11.6 9.80344 11.5406 9.98333 11.5851 10.1529L12.6655 14.2708C12.7669 14.6572 12.3466 14.9708 12.005 14.7635L8.23055 12.4734C8.08887 12.3874 7.91113 12.3874 7.76945 12.4734L3.99496 14.7635C3.6534 14.9708 3.23313 14.6572 3.33452 14.2708L4.41486 10.1529C4.45935 9.98333 4.39999 9.80344 4.2633 9.69364L0.892234 6.98565C0.57604 6.73165 0.737364 6.2216 1.14211 6.19562L5.55349 5.91253C5.72245 5.90169 5.87058 5.79579 5.9355 5.63942L7.58953 1.65544Z" fill="#5175FF" stroke="#5175FF" stroke-width="1.33333" stroke-linejoin="round"/>
</g>
<defs>
<clipPath id="clip0_1_15794">
<rect width="16" height="16" fill="white"/>
</clipPath>
</defs>
</svg>
