<svg width="24" height="24" viewBox="0 0 24 24" fill="none" xmlns="http://www.w3.org/2000/svg">
<path d="M2.00098 6.0022H22.001M10.001 11.0022V16.0022M14.001 11.0022V16.0022M4.00098 6.0022H20.001L18.421 20.2222C18.3668 20.7116 18.134 21.1638 17.7672 21.4922C17.4004 21.8206 16.9253 22.0022 16.433 22.0022H7.56898C7.07661 22.0022 6.60154 21.8206 6.23472 21.4922C5.86791 21.1638 5.63514 20.7116 5.58098 20.2222L4.00098 6.0022ZM7.34598 3.1492C7.50773 2.80617 7.76368 2.51619 8.08398 2.31311C8.40428 2.11002 8.77572 2.00219 9.15498 2.0022H14.847C15.2264 2.002 15.5981 2.10974 15.9185 2.31284C16.239 2.51594 16.4951 2.80601 16.657 3.1492L18.001 6.0022H6.00098L7.34598 3.1492Z" stroke="#C0C0C0" stroke-width="2" stroke-linecap="round" stroke-linejoin="round"/>
</svg>
