<svg width="15" height="20" viewBox="0 0 15 20" fill="none" xmlns="http://www.w3.org/2000/svg">
<path d="M12.4449 0.168003C12.5579 0.0926464 12.685 0.0411029 12.8186 0.0165171C12.9522 -0.00806865 13.0894 -0.0051811 13.2219 0.0250034C13.6739 0.128003 13.8839 0.500003 14.0629 0.887003C14.2123 1.2123 14.3422 1.54623 14.4519 1.887C14.821 3.05557 15.0059 4.27452 14.9999 5.5C14.9999 7.026 14.7289 8.255 14.4519 9.112C14.3119 9.541 14.1719 9.878 14.0629 10.113C13.8749 10.52 13.7599 10.853 13.2229 10.975C13.0903 11.0053 12.9529 11.0083 12.8191 10.9837C12.6853 10.9591 12.558 10.9075 12.4449 10.832C11.5319 10.223 10.3479 9.793 8.99986 9.502V19C8.99986 19.2652 8.8945 19.5196 8.70696 19.7071C8.51943 19.8946 8.26507 20 7.99986 20H4.99986C4.73464 20 4.48029 19.8946 4.29275 19.7071C4.10521 19.5196 3.99986 19.2652 3.99986 19V8.984C3.34729 8.96971 2.6945 8.96771 2.04186 8.978C1.77539 8.98225 1.51073 8.93346 1.2633 8.83447C1.01586 8.73548 0.790574 8.58828 0.600553 8.40142C0.410531 8.21457 0.259565 7.99179 0.15644 7.74604C0.0533142 7.5003 8.7738e-05 7.23651 -0.000144005 6.97V4.03C0.000220299 3.76358 0.053545 3.4999 0.15673 3.25427C0.259914 3.00864 0.410899 2.78598 0.600907 2.59923C0.790915 2.41248 1.01616 2.26537 1.26353 2.16644C1.5109 2.06752 1.77547 2.01876 2.04186 2.023C3.86686 2.049 5.86486 2 7.72686 1.727C9.60286 1.453 11.2539 0.962003 12.4449 0.168003Z" fill="#FF6467"/>
</svg>
