<svg width="20" height="20" viewBox="0 0 20 20" fill="none" xmlns="http://www.w3.org/2000/svg">
<path d="M19.0249 8.51024C19.2571 8.74239 19.4413 9.01802 19.567 9.32138C19.6926 9.62474 19.7573 9.94988 19.7573 10.2782C19.7573 10.6066 19.6926 10.9317 19.567 11.2351C19.4413 11.5385 19.2571 11.8141 19.0249 12.0462L16.1959 14.8742C15.7897 15.2804 15.2561 15.5343 14.6848 15.5933C14.1135 15.6522 13.5393 15.5127 13.0587 15.1981C12.5782 14.8835 12.2206 14.413 12.0462 13.8658C11.8717 13.3185 11.891 12.7279 12.1009 12.1932L11.3099 11.4022L4.90286 18.7942C4.65159 19.0839 4.34339 19.3187 3.99743 19.484C3.65148 19.6493 3.27518 19.7416 2.89199 19.7552C2.5088 19.7688 2.12692 19.7033 1.77014 19.5629C1.41335 19.4224 1.0893 19.21 0.818178 18.9389C0.547052 18.6678 0.334654 18.3437 0.194216 17.987C0.0537777 17.6302 -0.0116959 17.2483 0.00187683 16.8651C0.0154495 16.4819 0.107779 16.1056 0.273108 15.7597C0.438437 15.4137 0.673229 15.1055 0.962858 14.8542L8.35486 8.44724L7.56386 7.65724C7.02901 7.86756 6.43802 7.88718 5.8904 7.71279C5.34278 7.53841 4.87196 7.18067 4.55722 6.6998C4.24247 6.21893 4.10301 5.6443 4.16232 5.07265C4.22163 4.501 4.47609 3.96725 4.88286 3.56124L7.71086 0.73224C8.117 0.326102 8.65059 0.0721955 9.22192 0.0132184C9.79325 -0.0457587 10.3675 0.0937903 10.848 0.408399C11.3285 0.723008 11.6861 1.19349 11.8605 1.74072C12.035 2.28796 12.0157 2.87857 11.8059 3.41324L16.3429 7.95024C16.7959 7.77239 17.291 7.73064 17.7674 7.83012C18.2438 7.92959 18.6808 8.16597 19.0249 8.51024Z" fill="#FFBB00"/>
</svg>
