<svg width="24" height="24" viewBox="0 0 24 24" fill="none" xmlns="http://www.w3.org/2000/svg">
<circle cx="12" cy="12" r="12" fill="#5175FF"/>
<g clip-path="url(#clip0_1_4908)">
<path d="M12.292 7.77051L16.2295 11.708M12.292 7.77051L6.66073 13.4018C6.48223 13.5803 6.36644 13.8118 6.33074 14.0617L5.94948 16.7306C5.83949 17.5005 6.49945 18.1605 7.26941 18.0505L9.93826 17.6693C10.1882 17.6336 10.4197 17.5178 10.5982 17.3393L16.2295 11.708M12.292 7.77051L14.092 5.97047C14.5476 5.51485 15.2863 5.51485 15.7419 5.97047L18.0295 8.25805C18.4851 8.71366 18.4851 9.45235 18.0295 9.90797L16.2295 11.708M13.6045 18.2705H17.542" stroke="white" stroke-width="1.16667" stroke-linecap="round"/>
</g>
<defs>
<clipPath id="clip0_1_4908">
<rect width="14" height="14" fill="white" transform="translate(5 5)"/>
</clipPath>
</defs>
</svg>
