<svg width="18" height="19" viewBox="0 0 18 19" fill="none" xmlns="http://www.w3.org/2000/svg">
<path d="M1.50098 6.46525C1.50098 4.88433 1.50098 4.09472 1.94048 3.60351C2.37998 3.1123 3.08648 3.1123 4.50098 3.1123H13.501C14.9155 3.1123 15.622 3.1123 16.0615 3.60351C16.501 4.09472 16.501 4.88433 16.501 6.46525C16.501 6.86005 16.501 7.05788 16.3915 7.1811C16.2812 7.30348 16.1035 7.30348 15.751 7.30348H2.25098C1.89773 7.30348 1.72073 7.30348 1.61048 7.1811C1.50098 7.05788 1.50098 6.85922 1.50098 6.46525ZM1.50098 14.0094C1.50098 15.5903 1.50098 16.3799 1.94048 16.8711C2.37998 17.3623 3.08648 17.3623 4.50098 17.3623H13.501C14.9155 17.3623 15.622 17.3623 16.0615 16.8711C16.501 16.3799 16.501 15.5903 16.501 14.0094V9.81819C16.501 9.42338 16.501 9.22555 16.3915 9.10233C16.2812 8.97995 16.1035 8.97995 15.751 8.97995H2.25098C1.89773 8.97995 1.72073 8.97995 1.61048 9.10233C1.50098 9.22555 1.50098 9.42422 1.50098 9.81819V14.0094Z" fill="#FFBB00"/>
<path d="M5.25098 2.3623V4.6123M12.751 2.3623V4.6123" stroke="#FFBB00" stroke-width="1.5" stroke-linecap="round"/>
</svg>
