<svg width="18" height="19" viewBox="0 0 18 19" fill="none" xmlns="http://www.w3.org/2000/svg">
<path d="M1.50098 6.41739C1.50098 4.83648 1.50098 4.04686 1.94048 3.55566C2.37998 3.06445 3.08648 3.06445 4.50098 3.06445H13.501C14.9155 3.06445 15.622 3.06445 16.0615 3.55566C16.501 4.04686 16.501 4.83648 16.501 6.41739C16.501 6.8122 16.501 7.01003 16.3915 7.13325C16.2812 7.25563 16.1035 7.25563 15.751 7.25563H2.25098C1.89773 7.25563 1.72073 7.25563 1.61048 7.13325C1.50098 7.01003 1.50098 6.81136 1.50098 6.41739ZM1.50098 13.9615C1.50098 15.5424 1.50098 16.332 1.94048 16.8232C2.37998 17.3145 3.08648 17.3145 4.50098 17.3145H13.501C14.9155 17.3145 15.622 17.3145 16.0615 16.8232C16.501 16.332 16.501 15.5424 16.501 13.9615V9.77034C16.501 9.37553 16.501 9.1777 16.3915 9.05448C16.2812 8.9321 16.1035 8.9321 15.751 8.9321H2.25098C1.89773 8.9321 1.72073 8.9321 1.61048 9.05448C1.50098 9.1777 1.50098 9.37636 1.50098 9.77034V13.9615Z" fill="#FF6467"/>
<path d="M5.25098 2.31445V4.56445M12.751 2.31445V4.56445" stroke="#FF6467" stroke-width="1.5" stroke-linecap="round"/>
</svg>
