<svg width="18" height="18" viewBox="0 0 18 18" fill="none" xmlns="http://www.w3.org/2000/svg">
<path d="M1.50098 5.60294C1.50098 4.02203 1.50098 3.23241 1.94048 2.74121C2.37998 2.25 3.08648 2.25 4.50098 2.25H13.501C14.9155 2.25 15.622 2.25 16.0615 2.74121C16.501 3.23241 16.501 4.02203 16.501 5.60294C16.501 5.99775 16.501 6.19557 16.3915 6.31879C16.2812 6.44118 16.1035 6.44118 15.751 6.44118H2.25098C1.89773 6.44118 1.72073 6.44118 1.61048 6.31879C1.50098 6.19557 1.50098 5.99691 1.50098 5.60294ZM1.50098 13.1471C1.50098 14.728 1.50098 15.5176 1.94048 16.0088C2.37998 16.5 3.08648 16.5 4.50098 16.5H13.501C14.9155 16.5 15.622 16.5 16.0615 16.0088C16.501 15.5176 16.501 14.728 16.501 13.1471V8.95588C16.501 8.56107 16.501 8.36325 16.3915 8.24003C16.2812 8.11765 16.1035 8.11765 15.751 8.11765H2.25098C1.89773 8.11765 1.72073 8.11765 1.61048 8.24003C1.50098 8.36325 1.50098 8.56191 1.50098 8.95588V13.1471Z" fill="#5175FF"/>
<path d="M5.25098 1.5V3.75M12.751 1.5V3.75" stroke="#5175FF" stroke-width="1.5" stroke-linecap="round"/>
</svg>
