<svg width="20" height="22" viewBox="0 0 20 22" fill="none" xmlns="http://www.w3.org/2000/svg">
<path d="M9.11777 21.3063L9.12877 21.3083L9.19977 21.3433L9.21977 21.3473L9.23377 21.3433L9.30477 21.3083C9.31543 21.3049 9.32343 21.3066 9.32877 21.3133L9.33277 21.3233L9.34977 21.7513L9.34477 21.7713L9.33477 21.7843L9.23077 21.8583L9.21577 21.8623L9.20377 21.8583L9.09977 21.7843L9.08777 21.7683L9.08377 21.7513L9.10077 21.3243C9.10343 21.3136 9.1091 21.3076 9.11777 21.3063ZM8.85277 21.1933L8.86577 21.1953L9.05077 21.2883L9.06077 21.2983L9.06377 21.3093L9.04577 21.7393L9.04077 21.7513L9.03277 21.7583L8.83177 21.8513C8.8191 21.8546 8.80943 21.8519 8.80277 21.8433L8.79877 21.8293L8.83277 21.2153C8.8361 21.2033 8.84277 21.1959 8.85277 21.1933ZM9.56777 21.1953C9.57217 21.1926 9.57744 21.1917 9.58247 21.1929C9.5875 21.194 9.5919 21.197 9.59477 21.2013L9.60077 21.2153L9.63477 21.8293C9.6341 21.8413 9.62843 21.8493 9.61777 21.8533L9.60277 21.8513L9.40177 21.7583L9.39177 21.7503L9.38777 21.7393L9.37077 21.3093L9.37377 21.2973L9.38377 21.2873L9.56777 21.1953Z" fill="#FFBB00"/>
<path d="M19.0244 8.51024C19.2566 8.74239 19.4408 9.01802 19.5665 9.32138C19.6921 9.62474 19.7568 9.94988 19.7568 10.2782C19.7568 10.6066 19.6921 10.9317 19.5665 11.2351C19.4408 11.5385 19.2566 11.8141 19.0244 12.0462L16.1954 14.8742C15.7892 15.2804 15.2556 15.5343 14.6843 15.5933C14.113 15.6522 13.5388 15.5127 13.0582 15.1981C12.5777 14.8835 12.2201 14.413 12.0457 13.8658C11.8712 13.3185 11.8906 12.7279 12.1004 12.1932L11.3094 11.4022L4.90237 18.7942C4.6511 19.0839 4.3429 19.3187 3.99694 19.484C3.65099 19.6493 3.27469 19.7416 2.8915 19.7552C2.50831 19.7688 2.12643 19.7033 1.76965 19.5629C1.41286 19.4224 1.08882 19.21 0.81769 18.9389C0.546564 18.6678 0.334166 18.3437 0.193727 17.987C0.0532894 17.6302 -0.0121841 17.2483 0.00138855 16.8651C0.0149612 16.4819 0.10729 16.1056 0.272619 15.7597C0.437948 15.4137 0.672741 15.1055 0.96237 14.8542L8.35437 8.44724L7.56337 7.65724C7.02852 7.86756 6.43754 7.88718 5.88991 7.71279C5.34229 7.53841 4.87148 7.18067 4.55673 6.6998C4.24198 6.21893 4.10252 5.6443 4.16183 5.07265C4.22115 4.501 4.47561 3.96725 4.88237 3.56124L7.71037 0.73224C8.11651 0.326102 8.65011 0.0721955 9.22143 0.0132184C9.79276 -0.0457587 10.367 0.0937903 10.8475 0.408399C11.3281 0.723008 11.6856 1.19349 11.86 1.74072C12.0345 2.28796 12.0152 2.87857 11.8054 3.41324L16.3424 7.95024C16.7954 7.77239 17.2905 7.73064 17.7669 7.83012C18.2433 7.92959 18.6804 8.16597 19.0244 8.51024Z" fill="#FFBB00"/>
</svg>
