<svg width="15" height="22" viewBox="0 0 15 22" fill="none" xmlns="http://www.w3.org/2000/svg">
<path d="M7.40583 21.2584L7.41783 21.2604L7.48883 21.2954L7.50883 21.2994L7.52283 21.2954L7.59383 21.2594C7.60449 21.2568 7.6125 21.2588 7.61783 21.2654L7.62183 21.2754L7.63883 21.7034L7.63383 21.7234L7.62383 21.7364L7.51983 21.8104L7.50483 21.8144L7.49283 21.8104L7.38883 21.7364L7.37683 21.7204L7.37283 21.7034L7.38983 21.2764C7.3925 21.2658 7.39783 21.2598 7.40583 21.2584ZM7.14183 21.1454L7.15583 21.1474L7.33983 21.2404L7.34983 21.2504L7.35283 21.2614L7.33483 21.6914L7.32983 21.7034L7.32183 21.7114L7.12083 21.8034C7.10816 21.8068 7.0985 21.8041 7.09183 21.7954L7.08783 21.7814L7.12183 21.1674C7.12516 21.1548 7.13183 21.1474 7.14183 21.1454ZM7.85683 21.1474C7.86124 21.1448 7.8665 21.1439 7.87153 21.145C7.87656 21.1461 7.88097 21.1491 7.88383 21.1534L7.88983 21.1674L7.92383 21.7814C7.92316 21.7934 7.91749 21.8014 7.90683 21.8054L7.89183 21.8034L7.69083 21.7104L7.68083 21.7024L7.67783 21.6914L7.65983 21.2614L7.66283 21.2494L7.67283 21.2394L7.85683 21.1474Z" fill="#FF6467"/>
<path d="M12.4449 0.168003C12.5579 0.0926464 12.685 0.0411029 12.8186 0.0165171C12.9522 -0.00806865 13.0894 -0.0051811 13.2219 0.0250034C13.6739 0.128003 13.8839 0.500003 14.0629 0.887003C14.2123 1.2123 14.3422 1.54623 14.4519 1.887C14.821 3.05557 15.0059 4.27452 14.9999 5.5C14.9999 7.026 14.7289 8.255 14.4519 9.112C14.3119 9.541 14.1719 9.878 14.0629 10.113C13.8749 10.52 13.7599 10.853 13.2229 10.975C13.0903 11.0053 12.9529 11.0083 12.8191 10.9837C12.6853 10.9591 12.558 10.9075 12.4449 10.832C11.5319 10.223 10.3479 9.793 8.99986 9.502V19C8.99986 19.2652 8.8945 19.5196 8.70696 19.7071C8.51943 19.8946 8.26507 20 7.99986 20H4.99986C4.73464 20 4.48029 19.8946 4.29275 19.7071C4.10521 19.5196 3.99986 19.2652 3.99986 19V8.984C3.34729 8.96971 2.6945 8.96771 2.04186 8.978C1.77539 8.98225 1.51073 8.93346 1.2633 8.83447C1.01586 8.73548 0.790574 8.58828 0.600553 8.40142C0.410531 8.21457 0.259565 7.99179 0.15644 7.74604C0.0533142 7.5003 8.7738e-05 7.23651 -0.000144005 6.97V4.03C0.000220299 3.76358 0.053545 3.4999 0.15673 3.25427C0.259914 3.00864 0.410899 2.78598 0.600907 2.59923C0.790915 2.41248 1.01616 2.26537 1.26353 2.16644C1.5109 2.06752 1.77547 2.01876 2.04186 2.023C3.86686 2.049 5.86486 2 7.72686 1.727C9.60286 1.453 11.2539 0.962003 12.4449 0.168003Z" fill="#FF6467"/>
</svg>
