<svg width="20" height="16" viewBox="0 0 20 16" fill="none" xmlns="http://www.w3.org/2000/svg">
<path d="M19 10.2857H17V12.5714H17.7C17.8656 12.5714 18 12.7 18 12.8571V13.4286C18 13.5857 17.8656 13.7143 17.7 13.7143H2.3C2.13437 13.7143 2 13.5857 2 13.4286V12.8571C2 12.7 2.13437 12.5714 2.3 12.5714H3V10.2857H1C0.446875 10.2857 0 10.7964 0 11.4286V14.8571C0 15.4893 0.446875 16 1 16H19C19.5531 16 20 15.4893 20 14.8571V11.4286C20 10.7964 19.5531 10.2857 19 10.2857ZM16 12.5714V1.15357C16 0.514286 15.5469 0 14.9906 0H5.0125C4.45312 0 4 0.517857 4 1.15357V12.5714H16ZM6.6 6.07143L7.39687 5.16786C7.52812 5.01786 7.74062 5.01786 7.87187 5.17143L9.1625 6.65714L12.1375 3.28571C12.2688 3.13571 12.4812 3.13571 12.6125 3.28929L13.4031 4.2C13.5344 4.35 13.5344 4.59286 13.4 4.74286L9.39062 9.28572C9.25937 9.43571 9.04688 9.43571 8.91562 9.28214L6.6 6.61429C6.46562 6.46429 6.46875 6.22143 6.6 6.07143Z" fill="#5175FF"/>
</svg>
