<svg width="180" height="49" viewBox="0 0 180 49" fill="none" xmlns="http://www.w3.org/2000/svg">
<g clip-path="url(#clip0_1967_16542)">
<path d="M0 47.1468V3.38322C0 2.50371 0.468325 2.0625 1.40189 2.0625H20.0887C23.2899 2.0625 26.106 2.57918 28.537 3.61543C30.968 4.65168 32.8443 6.12043 34.1631 8.02459C35.4848 9.92874 36.1442 12.1377 36.1442 14.6456C36.1442 15.9228 35.8915 17.1767 35.3893 18.4103C34.8871 19.644 34.1969 20.7238 33.3219 21.6468C32.4469 22.5728 31.4825 23.2433 30.4288 23.6613C31.9724 24.1228 33.3497 24.9152 34.5667 26.0386C35.7806 27.1619 36.7358 28.5058 37.4228 30.0675C38.113 31.632 38.4581 33.2604 38.4581 34.9556C38.4581 37.6638 37.7741 40.0381 36.4061 42.0729C35.0381 44.1106 33.1216 45.6838 30.6568 46.7956C28.1919 47.9073 25.345 48.4646 22.1191 48.4646H1.40189C0.468325 48.4646 0 48.0234 0 47.1439V47.1468ZM22.0359 19.8327C22.8894 19.4147 23.5549 18.8428 24.0355 18.1143C24.5131 17.3886 24.7534 16.5962 24.7534 15.737C24.7534 14.4163 24.2635 13.3423 23.2807 12.5179C22.2978 11.6907 21.0007 11.2785 19.3893 11.2785H11.3261V20.4596H19.1089C20.2057 20.4596 21.1824 20.2506 22.0359 19.8327ZM25.385 37.9482C26.4603 36.9033 26.9965 35.5332 26.9965 33.8351C26.9965 32.8656 26.7346 31.9629 26.2077 31.1269C25.6808 30.291 24.9383 29.6176 23.9832 29.1125C23.0249 28.6074 21.9157 28.352 20.6525 28.352H11.3261V39.5157H21.1424C22.8955 39.5157 24.3097 38.9932 25.385 37.9482Z" fill="#F1F3FD"/>
<path d="M88.3162 47.486C88.3162 47.8024 88.2084 48.0462 87.9927 48.2146C87.7771 48.383 87.4782 48.47 87.093 48.47H78.0593C77.2428 48.47 76.7036 48.0956 76.4387 47.3525L73.7766 40.3687H54.449L51.8208 47.3525C51.5805 48.0985 51.0413 48.47 50.2002 48.47H41.1664C40.7813 48.47 40.4763 48.3859 40.2483 48.2146C40.0203 48.0462 39.9062 47.8024 39.9062 47.486C39.9062 47.3061 39.9432 47.1145 40.0141 46.9084L58.5899 1.84732C58.8765 1.12455 59.4311 0.761719 60.2445 0.761719H68.055C68.8931 0.761719 69.46 1.12455 69.7465 1.84732L88.2084 46.9084C88.2793 47.1116 88.3162 47.3032 88.3162 47.486ZM70.4305 31.1092L64.672 15.8179L64.0958 13.8847L63.5905 15.8179L57.832 31.1092H70.4275H70.4305Z" fill="#F1F3FD"/>
<path d="M93.2734 47.1443V3.12239C93.2734 2.23708 93.7448 1.79297 94.6846 1.79297H114.293C117.679 1.79297 120.677 2.45768 123.286 3.7871C125.896 5.11653 127.929 6.96553 129.387 9.33411C130.844 11.7056 131.574 14.4283 131.574 17.508C131.574 20.5878 130.9 23.1015 129.547 25.2495C128.194 27.3974 126.309 29.1245 123.887 30.4336L132.563 46.9121C132.705 47.1791 132.776 47.4114 132.776 47.6087C132.776 47.8758 132.665 48.0848 132.44 48.2386C132.215 48.3925 131.916 48.4708 131.541 48.4708H121.666C120.889 48.4708 120.338 48.1399 120.008 47.4752L112.955 33.2231C112.533 33.2463 111.908 33.255 111.085 33.255H104.701V47.1414C104.701 48.0267 104.23 48.4708 103.29 48.4708H94.6846C93.7448 48.4708 93.2734 48.0267 93.2734 47.1414V47.1443ZM116.708 23.1247C117.731 22.55 118.529 21.7692 119.105 20.7822C119.681 19.7982 119.968 18.7185 119.968 17.5429C119.968 16.2367 119.675 15.1133 119.087 14.17C118.498 13.2295 117.706 12.5212 116.705 12.0452C115.707 11.5692 114.582 11.3311 113.337 11.3311H104.698V23.9897H113.233C114.527 23.9897 115.682 23.7023 116.705 23.1247H116.708Z" fill="#F1F3FD"/>
<path d="M158.387 0C146.451 0 136.773 9.11729 136.773 20.3622C136.773 20.7164 136.783 21.0676 136.801 21.4159L136.773 21.4217C136.773 21.4217 136.77 22.9398 137.445 25.4158C137.451 25.439 137.457 25.4651 137.464 25.4884C138.064 27.6654 139.189 30.5651 141.309 33.8539C141.309 33.8539 141.309 33.8539 141.309 33.8568C143.315 37.0787 147.452 42.2542 155.654 48.1669C157.253 49.3193 159.484 49.27 161.034 48.0624C164.038 45.72 169.005 41.5982 172.764 37.2152C172.764 37.2152 178.59 31.3111 179.708 23.68C179.708 23.6597 179.711 23.6452 179.715 23.6248C179.896 22.5625 179.995 21.474 179.995 20.3622C179.995 9.11729 170.317 0 158.381 0L158.387 0ZM158.387 29.5057C153.026 29.5057 148.682 25.4129 148.682 20.3622C148.682 15.3116 153.026 11.2188 158.387 11.2188C163.748 11.2188 168.093 15.3116 168.093 20.3622C168.093 25.4129 163.748 29.5057 158.387 29.5057Z" fill="#F1F3FD"/>
</g>
<defs>
<clipPath id="clip0_1967_16542">
<rect width="180" height="49" fill="white"/>
</clipPath>
</defs>
</svg>
