<svg width="222" height="65" viewBox="0 0 222 65" fill="none" xmlns="http://www.w3.org/2000/svg">
<g clip-path="url(#clip0_1967_16541)">
<path d="M0 62.544V4.49025C0 3.32355 0.577601 2.73828 1.729 2.73828H24.776C28.7242 2.73828 32.1974 3.42367 35.1956 4.79829C38.1938 6.17291 40.508 8.12126 42.1344 10.6472C43.7646 13.1731 44.5778 16.1033 44.5778 19.4301C44.5778 21.1243 44.2662 22.7877 43.6468 24.4242C43.0274 26.0607 42.1762 27.493 41.097 28.7175C40.0178 29.9458 38.8284 30.8353 37.5288 31.3897C39.4326 32.0019 41.1312 33.0531 42.6322 34.5433C44.1294 36.0334 45.3074 37.8162 46.1548 39.8877C47.006 41.9631 47.4316 44.1233 47.4316 46.372C47.4316 49.9645 46.588 53.1141 44.9008 55.8133C43.2136 58.5164 40.85 60.6033 37.81 62.0781C34.77 63.5528 31.2588 64.2921 27.2802 64.2921H1.729C0.577601 64.2921 0 63.7068 0 62.5401V62.544ZM27.1776 26.3109C28.2302 25.7565 29.051 24.9979 29.6438 24.0315C30.2328 23.0688 30.5292 22.0176 30.5292 20.8779C30.5292 19.1259 29.925 17.7013 28.7128 16.6077C27.5006 15.5103 25.9008 14.9636 23.9134 14.9636H13.9688V27.1426H23.5676C24.9204 27.1426 26.125 26.8654 27.1776 26.3109ZM31.3082 50.3418C32.6344 48.9556 33.2956 47.1382 33.2956 44.8857C33.2956 43.5996 32.9726 42.4021 32.3228 41.2932C31.673 40.1842 30.7572 39.2909 29.5792 38.6209C28.3974 37.9509 27.0294 37.6121 25.4714 37.6121H13.9688V52.4211H26.0756C28.2378 52.4211 29.982 51.728 31.3082 50.3418Z" fill="#F1F3FD"/>
<path d="M108.924 62.993C108.924 63.4127 108.791 63.7361 108.525 63.9594C108.259 64.1827 107.891 64.2983 107.416 64.2983H96.2742C95.2672 64.2983 94.6022 63.8015 94.2754 62.8158L90.9922 53.5516H67.1548L63.9134 62.8158C63.617 63.8054 62.952 64.2983 61.9146 64.2983H50.773C50.2979 64.2983 49.9218 64.1866 49.6406 63.9594C49.3594 63.7361 49.2188 63.4127 49.2188 62.993C49.2188 62.7542 49.2644 62.5001 49.3518 62.2267L72.262 2.4518C72.6154 1.49303 73.2994 1.01172 74.3026 1.01172H83.9356C84.9692 1.01172 85.6684 1.49303 86.0218 2.4518L108.791 62.2267C108.879 62.4962 108.924 62.7504 108.924 62.993ZM86.8654 41.2685L79.7632 20.9842L79.0526 18.4198L78.4294 20.9842L71.3272 41.2685H86.8616H86.8654Z" fill="#F1F3FD"/>
<path d="M115.039 62.535V4.13852C115.039 2.96412 115.62 2.375 116.779 2.375H140.963C145.139 2.375 148.836 3.25676 152.055 5.02028C155.274 6.7838 157.782 9.23656 159.579 12.3786C161.376 15.5244 162.277 19.1362 162.277 23.2215C162.277 27.3069 161.445 30.6414 159.777 33.4908C158.108 36.3401 155.783 38.6311 152.796 40.3677L163.497 62.2269C163.672 62.5812 163.759 62.8892 163.759 63.151C163.759 63.5053 163.622 63.7825 163.345 63.9866C163.067 64.1907 162.699 64.2946 162.235 64.2946H150.056C149.098 64.2946 148.418 63.8557 148.012 62.9739L139.313 44.068C138.793 44.0988 138.021 44.1104 137.007 44.1104H129.133V62.5311C129.133 63.7055 128.552 64.2946 127.393 64.2946H116.779C115.62 64.2946 115.039 63.7055 115.039 62.5311V62.535ZM143.942 30.6722C145.203 29.9098 146.188 28.874 146.898 27.5649C147.609 26.2595 147.962 24.8272 147.962 23.2677C147.962 21.535 147.601 20.0449 146.875 18.7935C146.15 17.5459 145.173 16.6064 143.938 15.9749C142.707 15.3434 141.32 15.0277 139.785 15.0277H129.129V31.8196H139.655C141.251 31.8196 142.676 31.4384 143.938 30.6722H143.942Z" fill="#F1F3FD"/>
<path d="M195.345 0C180.623 0 168.688 12.0944 168.688 27.0111C168.688 27.4809 168.699 27.9468 168.722 28.4089L168.688 28.4166C168.688 28.4166 168.684 30.4304 169.516 33.7148C169.523 33.7456 169.531 33.7803 169.539 33.8111C170.28 36.699 171.667 40.5456 174.281 44.9082C174.281 44.9082 174.281 44.9082 174.281 44.912C176.755 49.1861 181.858 56.0515 191.974 63.8949C193.946 65.4236 196.697 65.3581 198.609 63.7563C202.314 60.649 208.439 55.1813 213.075 49.3671C213.075 49.3671 220.261 41.5352 221.641 31.4122C221.641 31.3853 221.644 31.366 221.648 31.3391C221.872 29.9298 221.994 28.4859 221.994 27.0111C221.994 12.0944 210.058 0 195.337 0L195.345 0ZM195.345 39.1402C188.733 39.1402 183.375 33.711 183.375 27.0111C183.375 20.3113 188.733 14.8821 195.345 14.8821C201.957 14.8821 207.315 20.3113 207.315 27.0111C207.315 33.711 201.957 39.1402 195.345 39.1402Z" fill="#F1F3FD"/>
</g>
<defs>
<clipPath id="clip0_1967_16541">
<rect width="222" height="65" fill="white"/>
</clipPath>
</defs>
</svg>
